<?xml version="1.0" standalone="no"?>
<!DOCTYPE svg PUBLIC "-//W3C//DTD SVG 20010904//EN"
 "http://www.w3.org/TR/2001/REC-SVG-20010904/DTD/svg10.dtd">
<svg version="1.0" xmlns="http://www.w3.org/2000/svg"
 width="1045.000000pt" height="1280.000000pt" viewBox="0 0 1045.000000 1280.000000"
 preserveAspectRatio="xMidYMid meet">
<metadata>
Created by potrace 1.15, written by Peter Selinger 2001-2017
</metadata>
<g transform="translate(0.000000,1280.000000) scale(0.100000,-0.100000)"
fill="#000000" stroke="none">
<path d="M1843 12740 l-92 -59 -18 29 -18 28 -205 -79 c-113 -44 -288 -111
-390 -151 -102 -39 -266 -113 -365 -164 l-180 -93 -259 -260 -259 -259 37 -33
c43 -38 68 -81 60 -104 -4 -9 0 -23 8 -33 9 -9 20 -32 26 -50 10 -31 10 -34
-8 -39 -34 -9 -22 -37 26 -62 45 -25 46 -25 40 -65 -4 -24 -15 -47 -26 -55
-22 -15 -27 -41 -7 -41 11 0 51 8 124 25 21 5 23 2 23 -30 0 -32 -2 -35 -30
-35 -19 0 -33 -7 -40 -20 -9 -17 -7 -20 14 -26 16 -4 23 -11 19 -20 -6 -17 1
-18 26 -2 17 10 25 6 63 -27 24 -21 49 -50 57 -64 l14 -25 19 27 c29 40 61 35
112 -18 25 -25 50 -45 56 -45 17 0 8 -193 -10 -215 -7 -8 -26 -15 -42 -15
l-30 0 21 -34 c19 -31 20 -36 6 -49 -24 -24 -18 -66 18 -121 28 -44 32 -61 36
-128 3 -74 4 -78 36 -103 19 -14 45 -25 59 -25 34 0 56 -35 65 -102 4 -29 13
-63 19 -75 7 -12 12 -38 12 -57 0 -26 7 -42 26 -59 14 -12 33 -35 41 -51 13
-26 18 -28 55 -23 36 5 43 2 81 -35 l42 -41 0 -76 c0 -74 2 -80 48 -154 47
-75 71 -93 84 -62 10 27 43 -12 43 -50 0 -19 8 -39 19 -49 31 -28 32 -63 3
-98 l-26 -31 47 -241 c26 -132 48 -258 47 -279 0 -28 9 -51 32 -83 l32 -45
-21 -154 c-30 -208 -65 -278 -168 -330 -25 -13 -44 -51 -53 -107 -7 -41 -9
-43 -44 -46 -55 -5 -61 -19 -34 -77 12 -28 30 -56 39 -64 24 -19 22 -82 -3
-109 -23 -24 -39 -29 -117 -35 -61 -5 -183 -72 -201 -111 -6 -14 -23 -30 -38
-38 -40 -19 -62 -63 -74 -148 -7 -48 -18 -84 -33 -104 -13 -17 -28 -42 -35
-56 -6 -14 -16 -32 -21 -40 -5 -8 -12 -23 -15 -32 -3 -10 -14 -18 -24 -18 -10
0 -37 -14 -60 -31 -36 -26 -42 -36 -42 -67 0 -26 -6 -41 -19 -49 -11 -7 -26
-25 -33 -40 -10 -21 -24 -31 -57 -39 -24 -5 -49 -18 -56 -28 -7 -9 -26 -21
-42 -25 -30 -8 -40 -31 -42 -103 -1 -23 -8 -42 -19 -50 -30 -22 -33 -35 -17
-74 22 -52 20 -61 -25 -105 -22 -22 -40 -44 -40 -49 0 -5 -14 -25 -31 -44 -17
-20 -28 -40 -25 -45 4 -5 -1 -27 -9 -49 -9 -21 -15 -43 -14 -48 6 -23 -14 -74
-32 -79 -27 -9 -24 -33 11 -65 17 -16 30 -38 30 -52 0 -39 27 -69 56 -62 26 7
35 -13 9 -22 -26 -10 -16 -24 16 -24 26 0 29 -2 20 -14 -7 -8 -8 -17 -3 -20 5
-3 14 6 20 19 9 19 19 25 42 25 33 0 39 -16 13 -36 -17 -13 -17 -13 0 -14 19
0 24 -20 5 -20 -7 0 -21 -7 -32 -15 -18 -13 -17 -16 14 -55 28 -35 38 -41 64
-38 27 3 33 -2 45 -29 12 -28 20 -33 47 -33 40 0 50 -13 27 -36 -13 -12 -14
-19 -5 -22 6 -2 12 -13 12 -25 0 -11 12 -33 27 -49 21 -22 24 -30 14 -42 -9
-10 -9 -16 -1 -21 7 -4 15 -3 19 1 4 5 34 41 67 79 51 60 59 74 55 99 -5 23
-13 32 -39 38 -40 11 -41 33 -1 53 24 13 34 14 45 5 11 -10 15 -9 20 4 12 31
114 13 114 -20 0 -10 12 -1 30 24 32 45 35 46 93 43 21 -2 37 2 37 8 0 16 61
51 88 51 12 0 35 8 49 17 l26 18 -6 -30 c-4 -17 -9 -40 -13 -51 -5 -18 0 -24
29 -33 25 -8 39 -21 48 -44 7 -18 31 -49 53 -70 l40 -38 -27 -26 c-25 -26 -27
-26 -45 -9 -14 12 -28 15 -47 10 -20 -5 -23 -9 -13 -15 10 -6 10 -13 2 -26
-16 -26 -214 -32 -259 -7 -28 15 -34 15 -84 -3 -45 -15 -57 -25 -68 -51 -13
-32 -12 -34 33 -82 53 -56 51 -66 -17 -101 -48 -24 -59 -24 -59 0 0 11 -4 23
-10 26 -5 3 -10 14 -10 25 0 24 -31 36 -42 15 -12 -20 -42 -19 -59 1 -12 14
-14 14 -25 -1 -11 -15 -15 -13 -43 14 -18 17 -37 31 -44 31 -7 0 -21 3 -33 6
-29 8 -84 -74 -84 -124 0 -31 -2 -34 -24 -30 -18 4 -26 0 -30 -15 -4 -15 -10
-18 -30 -13 -32 8 -42 -9 -16 -27 24 -16 18 -43 -11 -52 -13 -4 -19 -16 -20
-38 -1 -18 -3 -49 -4 -69 -1 -26 2 -38 11 -38 8 0 14 -9 14 -20 0 -11 5 -20
10 -20 6 0 8 -11 4 -25 -5 -21 -3 -25 14 -25 11 0 30 -13 42 -30 15 -21 30
-30 50 -30 44 0 47 -29 7 -65 -62 -56 -68 -68 -56 -104 15 -42 5 -50 -26 -21
-14 13 -25 18 -25 11 0 -6 -10 -15 -22 -20 -20 -7 -18 -9 15 -15 21 -4 35 -11
32 -16 -7 -11 -27 1 830 -482 935 -528 2365 -1334 3085 -1741 473 -267 722
-414 769 -453 5 -5 50 -281 51 -311 0 -14 -28 -52 -80 -105 -44 -45 -80 -88
-80 -94 0 -6 10 -14 21 -17 22 -6 23 -25 4 -69 -8 -21 9 -24 49 -8 18 7 33 5
53 -4 16 -8 39 -19 53 -24 20 -8 31 -27 54 -96 l29 -86 476 -337 c262 -186
638 -452 836 -592 198 -140 406 -287 462 -327 l103 -73 41 60 c33 49 43 58 55
48 11 -9 14 -9 14 2 0 22 18 -4 22 -31 3 -23 7 -25 66 -28 57 -3 62 -1 62 18
0 12 -7 35 -16 52 -16 30 -15 31 6 25 16 -4 24 0 30 16 8 19 9 18 9 -12 1 -27
4 -31 14 -22 8 6 19 30 27 53 16 57 53 128 84 165 35 41 98 191 91 214 -4 11
-2 19 3 19 5 0 19 26 30 58 12 31 33 73 47 92 48 66 34 86 -64 92 -27 2 -46 8
-49 17 -4 11 7 13 58 7 55 -6 62 -5 56 9 -3 9 -2 13 4 10 6 -3 10 -15 10 -25
0 -10 5 -22 10 -25 16 -10 39 14 67 69 14 28 33 60 43 71 54 62 140 291 140
373 l0 52 -35 0 c-19 0 -35 5 -35 10 0 17 29 23 45 10 8 -6 19 -9 25 -5 15 9
54 90 75 155 44 132 56 151 146 210 106 70 129 103 129 184 0 44 6 69 20 91
11 17 20 46 20 66 0 41 40 104 84 133 15 10 25 20 22 23 -3 3 -24 -6 -46 -21
-22 -14 -44 -26 -50 -26 -17 0 -11 18 10 33 17 12 18 16 6 26 -22 19 -28 102
-11 152 10 26 14 57 10 76 -4 21 0 44 11 65 29 56 115 137 200 188 158 96 203
107 288 69 58 -25 77 -20 140 42 26 26 68 58 93 70 40 19 114 83 113 98 -2 22
-34 58 -71 78 l-44 23 40 -3 c36 -2 40 1 43 23 2 14 8 30 14 35 6 7 8 -2 4
-25 -10 -56 2 -63 62 -33 48 24 53 29 48 52 -6 25 -6 25 9 6 9 -11 14 -31 13
-45 -4 -37 26 -37 63 -1 23 24 30 38 27 63 -3 27 -8 34 -38 42 -47 13 -51 22
-45 86 4 30 1 77 -5 104 -13 58 -7 69 15 27 11 -21 23 -31 39 -31 31 0 41 28
20 51 -21 24 -15 113 10 152 24 36 28 30 12 -16 -12 -35 -8 -129 7 -143 13
-13 63 14 85 46 12 18 41 42 63 52 23 10 57 32 76 48 18 17 43 30 54 30 31 0
59 -18 53 -35 -7 -17 11 -21 21 -5 11 18 25 0 25 -33 0 -31 1 -31 86 53 47 47
92 98 101 115 9 16 26 38 39 48 14 10 22 23 19 27 -3 5 9 26 28 47 73 83 87
108 87 156 0 45 -8 58 -370 544 l-370 498 0 2412 0 2411 224 219 224 218 361
527 c199 290 361 530 361 533 0 3 -26 5 -57 5 -32 1 -80 7 -108 14 -36 10 -57
10 -75 3 -14 -5 -68 -11 -120 -13 -52 -1 -113 -5 -135 -8 -22 -3 -71 -7 -110
-9 -38 -2 -80 -8 -91 -15 -15 -8 -32 -8 -55 -2 -45 13 -92 13 -122 -1 -20 -9
-32 -7 -62 7 -43 20 -141 107 -164 145 -21 34 -101 96 -155 119 -34 14 -48 29
-75 80 -28 52 -40 65 -78 81 -59 25 -77 24 -97 -6 -11 -17 -26 -25 -44 -25
-16 0 -161 -57 -323 -126 -162 -69 -307 -128 -324 -131 -16 -4 -35 -13 -40
-20 -6 -8 -100 -60 -210 -117 l-200 -103 -66 -134 -67 -134 -123 -112 c-117
-106 -125 -115 -141 -171 -17 -57 -18 -59 -48 -54 -23 3 -34 12 -44 36 l-13
31 -98 3 c-54 1 -102 5 -107 8 -4 3 -8 15 -8 26 0 20 -1 20 -18 5 -25 -23
-154 -24 -172 -2 -7 8 -19 15 -27 15 -8 0 -37 11 -65 25 -58 29 -68 31 -68 10
0 -17 -16 -20 -25 -5 -4 6 -11 7 -17 4 -5 -3 -47 -8 -93 -10 -73 -3 -97 1
-197 31 -107 33 -122 42 -155 91 -12 18 -13 18 -29 -3 -12 -17 -26 -23 -53
-23 -58 0 -79 10 -102 47 -22 34 -57 43 -51 11 5 -32 -70 -41 -260 -29 -114 7
-186 7 -208 1 -29 -8 -38 -6 -69 16 -20 15 -61 52 -91 82 -39 40 -220 164
-615 423 -308 201 -578 385 -600 408 -22 23 -45 41 -52 41 -7 0 -17 9 -24 21
-7 14 -17 19 -30 16 -11 -3 -32 1 -47 8 -121 60 -155 68 -307 77 -82 4 -161 8
-175 7 -155 -2 -642 3 -700 7 -75 6 -75 6 -139 65 -62 58 -63 60 -46 79 16 18
16 20 1 26 -9 3 -16 16 -16 29 0 30 -16 35 -121 35 l-89 0 0 30 c0 38 -18 45
-64 26 -34 -14 -36 -18 -36 -59 0 -24 -2 -46 -5 -49 -3 -3 -36 6 -74 19 l-69
25 -51 108 -52 109 22 42 c11 23 27 59 34 80 13 35 12 37 -8 43 -12 3 -64 6
-114 6 -51 0 -93 2 -93 4 0 2 9 29 21 59 14 36 18 61 12 71 -7 13 -23 6 -100
-44z m7295 -9191 c14 -6 22 -16 21 -31 -1 -16 -3 -18 -6 -6 -2 9 -20 22 -38
28 -19 6 -38 16 -41 22 -6 10 11 6 64 -13z m-138 -403 c0 -6 -7 -2 -15 8 -8
11 -15 25 -15 30 0 6 7 2 15 -8 8 -11 15 -25 15 -30z"/>
<path d="M75 5990 c6 -10 40 -8 51 3 4 4 -7 7 -25 7 -19 0 -30 -4 -26 -10z"/>
<path d="M347 5667 c-17 -17 -20 -17 -36 -3 -21 19 -31 12 -31 -20 0 -17 -7
-25 -25 -30 -32 -8 -24 -18 15 -20 34 -2 104 53 99 76 -3 13 -7 13 -22 -3z"/>
<path d="M100 5590 c-8 -5 -27 -10 -41 -10 -15 0 -32 -6 -38 -13 -16 -20 56
-51 98 -42 39 8 44 17 30 49 -13 28 -25 32 -49 16z"/>
<path d="M9357 3454 c-21 -14 -54 -32 -73 -40 -21 -9 -34 -21 -34 -32 0 -10
-5 -23 -12 -30 -10 -10 -7 -18 15 -38 15 -13 27 -30 27 -36 0 -9 3 -9 12 0 9
9 9 15 0 24 -21 21 -13 39 21 51 17 6 36 10 41 9 4 -2 14 2 21 8 9 8 15 8 20
0 11 -17 33 -11 40 11 7 19 7 20 21 2 12 -16 15 -16 24 -3 20 30 11 55 -30 78
-48 27 -47 27 -93 -4z"/>
</g>
</svg>
