<?xml version="1.0" standalone="no"?>
<!DOCTYPE svg PUBLIC "-//W3C//DTD SVG 1.1//EN" "http://www.w3.org/Graphics/SVG/1.1/DTD/svg11.dtd">
<svg xmlns="http://www.w3.org/2000/svg">
<defs >
<font id="Grenze" horiz-adv-x="507" ><font-face
    font-family="Grenze ExtraBold"
    units-per-em="1000"
    panose-1="2 14 9 4 6 4 3 5 4 4"
    ascent="1100"
    descent="-380"
    alphabetic="0" />
<glyph unicode=" " glyph-name="space" horiz-adv-x="133" />
<glyph unicode="!" glyph-name="exclam" horiz-adv-x="335" d="M131 188T122 195T114 205L163 627Q283 649 299 649Q304 649 314 637T324 621L222 199Q213 198 181 193T135 188Q131 188 122 195ZM81 -9T71 4T62 23L89 123H221L208 0Q132 -9 88 -9Q81 -9 71 4Z" />
<glyph unicode="&quot;" glyph-name="quotedbl" horiz-adv-x="405" d="M123 682Q201 694 236 694Q241 694 251 683T261 667Q223 543 202 484L108 483L123 682ZM305 682Q383 694 418 694Q423 694 433 683T443 667Q440 660 417 587Q399 524 384 484L290 483L305 682Z" />
<glyph unicode="#" glyph-name="numbersign" horiz-adv-x="574" d="M442 286L413 195H503L476 101H384L343 -30H251L291 101H212L171 -30H78L118 101H28L54 195H147L175 286H89L115 380H204L241 499H335L298 380H377L414 499H508L471 380H563L536 286H442ZM348
286H269L241 195H320L348 286Z" />
<glyph unicode="$" glyph-name="dollar" horiz-adv-x="493" d="M370 363L376 470Q289 486 267 486Q253 486 244 474T235 439Q235 409 259 385T330 329Q369 302 392 283T432 237T449 177Q449 141 436 108Q419 82 381 55T302 9T239 -9H230L220 -80H119L131 -17H40L43
-2L11 1L54 52L78 178L162 177L156 89Q217 80 248 80Q260 80 273 98T287 130Q287 160 264 183T194 238Q157 263 135 281T98 324T82 380Q82 399 86 420T97 457Q112 480 160 510T254 559L272 660H367L351 569Q437 563 495 557L454 363H370Z" />
<glyph unicode="%" glyph-name="percent" horiz-adv-x="854" d="M584 611H686L295 -9H193L584 611ZM149 290T117 318T85 402Q85 495 132 551T265 608Q332 608 363 581T395 498Q395 407 347 349T216 290Q149 290 117 318ZM247 360T274 376Q294 438 294 487Q294
514 286 525T257 537Q232 537 203 521Q195 497 191 468T186 416Q186 387 195 374T223 360Q247 360 274 376ZM481 -14T481 99Q481 192 528 248T661 305Q728 305 759 278T790 195Q790 103 743 45T612 -14Q481 -14 481 99ZM642 56T669 73Q679 101 684 130T690 183Q690
211 682 222T653 234Q629 234 599 218Q581 160 581 112Q581 56 619 56Q642 56 669 73Z" />
<glyph unicode="&amp;" glyph-name="ampersand" horiz-adv-x="620" d="M549 288Q525 258 496 226L457 179Q500 126 543 78L588 65L578 0H401Q391 4 350 57L330 36Q300 22 254 7T196 -9Q127 -9 72 23T17 135Q17 195 55 242T154 330Q116 390 116 454Q116 477 122
501T138 538Q167 560 236 591T325 622Q384 622 422 604T461 549Q461 511 427 430H343L353 516Q355 535 342 545T310 556Q304 556 296 554Q273 548 273 498Q273 453 294 412Q323 353 405 246Q429 278 440 294L395 307L407 368H624L611 299L549 288ZM265 74T304 118Q247
193 203 258Q177 209 177 137Q177 63 225 63Q234 63 251 68Q265 74 304 118Z" />
<glyph unicode="&apos;" glyph-name="quotesingle" horiz-adv-x="223" d="M123 682Q201 694 236 694Q241 694 251 683T261 667L241 603Q206 496 202 484L108 483L123 682Z" />
<glyph unicode="(" glyph-name="parenleft" horiz-adv-x="315" d="M112 -58T82 22T52 194Q52 334 118 465T302 688L360 646Q290 551 245 405T200 119Q200 63 209 11T234 -78L168 -120Q112 -58 82 22Z" />
<glyph unicode=")" glyph-name="parenright" horiz-adv-x="314" d="M-12 -78Q58 17 103 163T148 449Q148 505 139 557T114 646L180 688Q236 626 266 546T296 374Q296 234 230 103T46 -120L-12 -78Z" />
<glyph unicode="*" glyph-name="asterisk" horiz-adv-x="373" d="M169 395L199 475L132 422L105 426L85 505L176 532L93 563L135 640L162 644L213 590L211 686L296 692L311 672L281 589L346 642L371 637L396 561L302 532L385 502L339 426L312 423L265 475L268
382L182 374L169 395Z" />
<glyph unicode="+" glyph-name="plus" horiz-adv-x="601" d="M496 204H344L314 29H207L237 204H84L105 304H255L285 478H392L362 304H517L496 204Z" />
<glyph unicode="," glyph-name="comma" horiz-adv-x="233" d="M-14 -118L-4 -98Q24 -43 37 -5Q36 -4 23 8T12 30L25 124Q50 129 89 134T147 139Q153 139 167 120T180 94Q169 24 132 -36T40 -158L-14 -118Z" />
<glyph unicode="-" glyph-name="hyphen" horiz-adv-x="339" d="M58 297H305L285 191H39L58 297Z" />
<glyph unicode="." glyph-name="period" horiz-adv-x="263" d="M55 -15T41 3T28 30L38 117Q63 122 103 127T162 132Q168 132 182 113T195 87L174 0Q155 -4 118 -8T61 -15Q55 -15 41 3Z" />
<glyph unicode="/" glyph-name="slash" horiz-adv-x="414" d="M330 687H448L117 -118H-1L330 687Z" />
<glyph unicode="0" glyph-name="zero" horiz-adv-x="516" d="M130 -9T79 34T27 164Q27 259 59 333T155 448T305 490Q401 490 453 447T505 317Q505 222 472 148T377 33T227 -9Q130 -9 79 34ZM271 69T295 82Q316 127 329 192T343 324Q343 412 287 412Q260 412 236
399Q216 353 203 288T189 157Q189 69 245 69Q271 69 295 82Z" />
<glyph unicode="1" glyph-name="one" horiz-adv-x="415" d="M372 66L361 0H3L14 69L121 87L169 364L60 356L71 433L281 490L346 459L282 83L372 66Z" />
<glyph unicode="2" glyph-name="two" horiz-adv-x="490" d="M203 246Q246 288 262 311T279 365Q279 381 274 391T259 402Q253 402 224 391T165 366L142 288H72L93 453Q250 489 308 489Q368 489 404 463T441 383Q441 339 417 301T355 225L245 112L244 102H354L373
169H444L420 0H15L14 59L203 246Z" />
<glyph unicode="3" glyph-name="three" horiz-adv-x="448" d="M400 199T400 111Q400 46 348 -12T204 -106T1 -141L22 -59Q113 -47 173 -1T234 110Q234 130 227 140T208 150H125L137 219Q202 236 233 280T265 372Q265 387 259 395T243 403Q233 403 151 370L128
283H58L79 453Q233 489 288 489Q351 489 387 463T424 383Q424 293 311 225L309 213Q400 199 400 111Z" />
<glyph unicode="4" glyph-name="four" horiz-adv-x="514" d="M245 36H5L6 105Q96 265 210 494L338 440L332 402Q310 366 248 278T146 140L144 127H261L277 224L398 266L428 252L406 127H472L457 36H391L367 -100H221L245 36Z" />
<glyph unicode="5" glyph-name="five" horiz-adv-x="436" d="M181 246Q236 266 242 266Q309 266 346 230T384 133Q384 66 341 6T209 -95T-9 -141L12 -59Q115 -41 166 -1T217 109Q217 137 207 148T173 160Q162 160 74 135L42 191L115 478H331L346 535H418L396 366H214L181
246Z" />
<glyph unicode="6" glyph-name="six" horiz-adv-x="477" d="M352 470T292 421T203 303Q303 349 312 349Q379 349 413 310T448 213Q448 183 438 147T409 77Q395 62 354 42T272 7T218 -9Q120 -9 70 41T19 179Q19 271 72 359T227 506T469 569L449 487Q352 470 292
421ZM248 245T182 223Q178 199 178 170Q178 114 194 92T243 69Q262 69 274 105T287 185Q287 213 279 229T256 245Q248 245 182 223Z" />
<glyph unicode="7" glyph-name="seven" horiz-adv-x="447" d="M425 471T442 445T460 404L160 -140Q148 -144 124 -148T89 -152Q82 -152 60 -128T24 -84L311 347L312 361H155L129 268H61L89 478H415Q425 471 442 445Z" />
<glyph unicode="8" glyph-name="eight" horiz-adv-x="465" d="M398 265T417 235T437 166Q437 142 428 117T407 74Q388 56 314 24T218 -9Q133 -9 77 23T20 126Q20 175 51 214T131 276Q78 324 78 382Q78 403 83 423T98 459Q120 481 190 517T285 553Q370 553 415
518T461 431Q461 388 435 352T364 292Q398 265 417 235ZM245 480T237 468T228 434Q228 407 245 386T297 340Q314 383 314 419Q314 447 299 463T256 480Q245 480 237 468ZM257 64T267 81T278 122Q278 152 259 174T201 224Q175 182 175 140Q175 106 193 85T243 64Q257
64 267 81Z" />
<glyph unicode="9" glyph-name="nine" horiz-adv-x="477" d="M367 489T417 439T467 301Q467 208 415 120T260 -27T17 -90L39 -7Q133 9 191 55T279 167Q272 164 227 144T174 123Q108 123 74 164T39 263Q39 295 49 333T77 402Q91 417 132 437T214 473T268 489Q367
489 417 439ZM237 227T303 249Q308 275 308 308Q308 364 291 387T240 410Q222 410 211 374T199 293Q199 262 207 245T230 227Q237 227 303 249Z" />
<glyph unicode=":" glyph-name="colon" horiz-adv-x="263" d="M109 326T95 344T82 371L91 458Q117 463 157 468T215 474Q222 474 236 455T249 428L228 341Q209 337 172 333T115 326Q109 326 95 344ZM52 -15T38 3T25 30L34 117Q59 122 99 127T158 132Q164 132 178
113T191 87L171 0Q152 -4 115 -8T58 -15Q52 -15 38 3Z" />
<glyph unicode=";" glyph-name="semicolon" horiz-adv-x="236" d="M99 326T85 344T72 371L82 458Q107 463 147 468T206 474Q212 474 226 455T239 428L218 341Q199 337 162 333T105 326Q99 326 85 344ZM-16 -118Q21 -47 36 -5Q34 -3 21 9T10 30L23 124Q49 129 88
134T145 139Q151 139 165 120T178 94Q166 24 129 -37T38 -158L-16 -118Z" />
<glyph unicode="&lt;" glyph-name="less" horiz-adv-x="591" d="M64 169L86 307L531 486L513 366L177 236L470 102L451 -10L64 169Z" />
<glyph unicode="=" glyph-name="equal" horiz-adv-x="595" d="M128 390H523L505 293H111L128 390ZM98 209H492L474 111H80L98 209Z" />
<glyph unicode="&gt;" glyph-name="greater" horiz-adv-x="591" d="M77 110L413 240L120 374L139 486L525 307L504 169L59 -10L77 110Z" />
<glyph unicode="?" glyph-name="question" horiz-adv-x="465" d="M491 651T491 542Q491 496 473 461T427 401T349 337Q327 321 316 312Q278 283 259 257T230 183Q168 172 144 172Q140 172 131 179T123 189L136 273Q142 314 168 344T240 409Q302 455 322 482T342
541Q342 567 326 567Q313 567 259 553L223 544L185 438H105L130 621Q268 651 343 651Q491 651 491 542ZM105 126L226 117L219 -2Q160 -9 103 -9Q96 -9 84 6T74 27L105 126Z" />
<glyph unicode="@" glyph-name="at" horiz-adv-x="955" d="M763 704T855 633T948 421Q948 351 923 275T855 130T765 16Q731 10 641 1T529 -9Q523 -9 509 9T496 36L515 149Q483 91 451 42T414 -8Q334 -8 299 30T264 141Q264 194 282 265T321 375Q351 400 430 436T530
473Q542 473 616 462T716 445L652 88L716 77Q757 156 781 241T805 407Q805 513 740 562T568 612Q509 612 446 596T333 551Q293 516 257 441T199 277T177 119Q177 -15 236 -75T425 -136Q457 -136 495 -133L494 -199Q417 -217 352 -217Q256 -217 185 -178T75 -66T36
106Q36 270 105 407T299 624T582 704Q763 704 855 633ZM458 139T481 163T527 216L555 381Q497 399 485 397Q473 393 458 364T433 287T422 187Q422 139 454 139Q458 139 481 163Z" />
<glyph unicode="A" glyph-name="A" horiz-adv-x="609" d="M588 65L578 0H298L309 73L372 86L364 176H202L168 89L242 73L230 0H-50L-40 65L29 80L288 611L454 620L471 602L531 79L588 65ZM236 260H358L344 492H335L236 260Z" />
<glyph unicode="B" glyph-name="B" horiz-adv-x="550" d="M478 307T506 279T535 205Q535 145 509 99T432 26T316 0H-19L-9 65L52 78L130 532L73 546L83 611H404Q467 611 506 583T546 499Q546 431 519 390T432 323L431 316Q478 307 506 279ZM346 346T365 387T384
496Q384 545 352 545Q341 545 293 533L260 346H286Q346 346 365 387ZM330 72T349 118T369 217Q369 238 361 247T339 258T299 260H246L216 85Q279 72 292 72Q330 72 349 118Z" />
<glyph unicode="C" glyph-name="C" horiz-adv-x="484" d="M392 399L400 524Q362 532 331 532Q306 532 287 524Q266 515 246 453T213 314T199 191Q199 132 223 113T293 93H332L372 216L451 215L421 14Q397 7 309 -1T202 -9Q162 -9 123 11T56 76T29 190Q29 256 50
349T100 505Q151 541 234 581T341 622Q369 622 425 619T520 613L476 399H392Z" />
<glyph unicode="D" glyph-name="D" horiz-adv-x="596" d="M500 611T547 564T594 420Q594 318 564 221T474 62T331 0H-19L-9 65L53 80L130 532L73 546L83 611H431Q500 611 547 564ZM326 77T357 136T406 279T423 433Q423 491 410 515T367 539Q350 539 292 529L216
85Q278 77 285 77Q326 77 357 136Z" />
<glyph unicode="E" glyph-name="E" horiz-adv-x="512" d="M423 393L428 533L290 520L263 362L386 357L372 274L247 269L217 93L359 80L399 223H480L446 0H-19L-8 65L53 79L130 532L73 546L83 611H539L503 393H423Z" />
<glyph unicode="F" glyph-name="F" horiz-adv-x="483" d="M498 397H418L423 533L290 520L260 346L387 341L373 258L244 253L216 88L313 72L301 0H-19L-9 65L53 79L130 532L73 546L83 611H534L498 397Z" />
<glyph unicode="G" glyph-name="G" horiz-adv-x="556" d="M553 244L504 235L475 59Q425 39 341 15T233 -9Q190 -9 143 11T62 76T29 190Q29 256 50 349T100 505Q151 541 234 581T341 622Q374 621 443 618T550 612L506 399H422L430 517Q374 532 331 532Q306 532
287 524Q266 515 246 453T213 314T199 191Q199 132 219 110T279 90L342 98L363 223L291 237L302 310H563L553 244Z" />
<glyph unicode="H" glyph-name="H" horiz-adv-x="644" d="M617 532L540 79L597 65L587 0H307L319 73L379 86L410 268H247L216 86L273 73L262 0H-19L-9 65L53 79L130 532L73 546L83 611H364L352 538L291 525L262 353H425L454 525L397 538L409 611H689L680 546L617 532Z" />
<glyph unicode="I" glyph-name="I" horiz-adv-x="322" d="M291 525L216 86L277 73L265 0H-19L-9 65L53 79L130 532L73 546L83 611H367L356 538L291 525Z" />
<glyph unicode="J" glyph-name="J" horiz-adv-x="311" d="M351 538L286 525L205 43Q200 12 164 -33T86 -112T27 -147Q-11 -147 -127 -115L-109 -44H-71Q-6 -44 4 -41Q29 -36 48 78L125 532L68 546L78 611H363L351 538Z" />
<glyph unicode="K" glyph-name="K" horiz-adv-x="592" d="M216 86L273 73L262 0H-19L-9 65L53 79L130 532L73 546L83 611H360L348 538L291 526L216 86ZM580 531L405 337Q433 275 465 208T523 92L579 66L569 0H376Q300 192 271 281L279 332L443 523L387 538L399
611H656L646 546L580 531Z" />
<glyph unicode="L" glyph-name="L" horiz-adv-x="498" d="M478 215L446 0H-19L-8 65L53 79L130 532L73 546L83 611H391L379 538L291 522L217 94L354 84L394 215H478Z" />
<glyph unicode="M" glyph-name="M" horiz-adv-x="820" d="M782 532L728 79L785 65L775 0H499L511 73L570 86L614 407H600Q594 389 556 307L430 45L316 28L283 39L246 274Q228 377 228 408H214L155 93L233 73L221 0H-34L-24 65L44 80L143 532L85 546L95 611H352L405
248H422L586 611H852L843 546L782 532Z" />
<glyph unicode="N" glyph-name="N" horiz-adv-x="638" d="M677 546L616 531L526 7L385 -7L361 9L301 185Q286 227 269 282T246 361H234L198 89L264 73L252 0H-19L-9 65L53 79L131 534L73 546L83 611H304L367 394L417 223H428L474 523L406 538L418 611H687L677 546Z" />
<glyph unicode="O" glyph-name="O" horiz-adv-x="582" d="M153 -12T91 36T29 192Q29 258 51 351T101 505Q151 541 234 581T342 622Q460 622 521 575T583 420Q583 354 562 264T512 105Q480 79 430 52T334 7T271 -12Q153 -12 91 36ZM296 73T319 83T353 100Q374 154
393 257T412 419Q412 479 395 506T338 533Q310 533 288 524Q267 515 247 453T213 314T199 191Q199 147 206 122T233 85T291 73Q296 73 319 83Z" />
<glyph unicode="P" glyph-name="P" horiz-adv-x="527" d="M475 611T515 579T556 485Q556 412 528 348T448 245T327 206H236L216 89L309 73L297 0H-19L-9 65L53 79L130 532L73 546L83 611H411Q475 611 515 579ZM356 293T373 347T391 475Q391 511 382 526T352 541Q343
541 292 530L251 293H298Q356 293 373 347Z" />
<glyph unicode="Q" glyph-name="Q" horiz-adv-x="582" d="M583 354T562 264T512 105Q480 79 431 53T335 7L512 -45L451 -156H388L186 -5Q109 10 69 57T29 192Q29 258 51 351T101 505Q151 541 234 581T342 622Q460 622 521 575T583 420Q583 354 562 264ZM374 154T393
257T412 419Q412 479 395 506T338 533Q310 533 288 524Q267 515 247 453T213 314T199 191Q199 147 206 122T233 85T291 73Q296 73 319 83T353 100Q374 154 393 257Z" />
<glyph unicode="R" glyph-name="R" horiz-adv-x="548" d="M456 188T497 91L553 66L543 0H343L288 244H243L216 86L273 73L261 0H-19L-9 65L53 79L130 532L73 546L83 611H416Q481 611 519 583T557 496Q557 426 523 363T431 268L430 260Q456 188 497 91ZM258 333H299Q352
333 372 373T392 478Q392 511 383 526T353 541Q340 541 292 529L258 333Z" />
<glyph unicode="S" glyph-name="S" horiz-adv-x="460" d="M360 398L367 517Q337 523 304 527T254 531Q224 531 224 479Q224 452 241 429T293 378Q291 380 328 349Q383 305 412 270T441 187Q441 170 437 148T426 113Q409 88 369 60T286 11T224 -9Q108 -9 -6 1L40
230H124L114 94Q191 85 236 85Q249 85 262 105T276 141Q276 173 254 197T183 258Q144 288 121 309T82 359T65 423Q65 455 81 501Q95 522 138 551T226 601T289 623Q303 623 369 618T488 607L444 398H360Z" />
<glyph unicode="T" glyph-name="T" horiz-adv-x="549" d="M561 381H476L488 518L412 531L336 88L411 73L399 0H83L93 65L173 81L251 533L169 519L141 381H57L80 611H604L561 381Z" />
<glyph unicode="U" glyph-name="U" horiz-adv-x="626" d="M591 532L514 79L579 61L569 0H386L361 77Q217 -11 203 -11Q131 -11 92 21T52 113Q52 136 58 175T91 370L119 532L61 546L71 611H347L335 538L279 526Q259 403 245 331Q235 271 229 234T223 183Q223 151
233 139T262 127Q281 127 365 157L428 526L375 538L387 611H664L654 546L591 532Z" />
<glyph unicode="V" glyph-name="V" horiz-adv-x="558" d="M594 551L342 1L174 -9L157 8L114 533L60 546L70 611H339L327 538L273 525L285 266L287 125H297L443 523L382 538L394 611H583L594 551Z" />
<glyph unicode="W" glyph-name="W" horiz-adv-x="858" d="M894 551L639 1L471 -9L454 8L442 232H433L338 1L170 -9L153 8L114 533L60 546L70 611H335L323 538L273 526L287 266L283 125H294L429 484L426 532L372 546L382 611H642L630 538L577 526L585 266L584 125H595L744
523L681 538L693 611H884L894 551Z" />
<glyph unicode="X" glyph-name="X" horiz-adv-x="592" d="M412 323L530 78L587 65L577 0H277L289 73L349 85L282 250L171 88L235 73L223 0H-49L-39 65L20 78L218 321L115 532L58 546L68 611H350L338 538L290 528L350 385L437 524L373 538L385 611H666L656 546L584
530L412 323Z" />
<glyph unicode="Y" glyph-name="Y" horiz-adv-x="532" d="M338 87L411 73L399 0H83L93 65L174 81L200 240L107 528L37 546L47 611H325L313 538L268 529L312 342H322L423 526L365 538L377 611H557L568 551L366 249L338 87Z" />
<glyph unicode="Z" glyph-name="Z" horiz-adv-x="509" d="M202 98L375 85L411 230H491L463 0H-12L-1 74L329 516L168 528L138 385H54L79 611H550L537 549L202 98Z" />
<glyph unicode="[" glyph-name="bracketleft" horiz-adv-x="313" d="M149 684H357L346 616L271 604L163 -29L234 -41L221 -116H13L149 684Z" />
<glyph unicode="\" glyph-name="backslash" horiz-adv-x="352" d="M101 687H212L270 -118H159L101 687Z" />
<glyph unicode="]" glyph-name="bracketright" horiz-adv-x="313" d="M-1 -48L74 -36L182 597L111 609L124 684H332L196 -116H-12L-1 -48Z" />
<glyph unicode="^" glyph-name="asciicircum" horiz-adv-x="547" d="M402 244L319 491L152 233L67 284L277 603H399L501 274L402 244Z" />
<glyph unicode="_" glyph-name="underscore" horiz-adv-x="398" d="M-42 -57H340L318 -165H-62L-42 -57Z" />
<glyph unicode="`" glyph-name="grave" horiz-adv-x="227" d="M69 619L81 668L151 721L287 572L243 520L69 619Z" />
<glyph unicode="a" glyph-name="a" horiz-adv-x="490" d="M402 88L448 77L438 17Q406 10 355 1T287 -9Q281 -9 267 9T254 36L270 155H260L250 138Q168 -8 162 -8Q83 -8 49 30T14 141Q14 198 32 268T72 375Q103 400 181 436T281 473Q293 473 367 462T466 445L402
88ZM210 136T279 217L306 383Q281 390 260 394T233 397Q221 394 207 364T182 287T171 187Q171 159 178 148T203 136Q210 136 279 217Z" />
<glyph unicode="b" glyph-name="b" horiz-adv-x="486" d="M402 473T436 434T471 323Q471 267 453 197T413 89Q382 65 304 29T204 -8Q192 -8 123 2T24 18H19V19V19L116 564L70 575L80 635Q109 642 162 651T233 661Q239 661 252 642T264 615L218 309H225Q318 473
323 473Q402 473 436 434ZM264 71T278 100T303 177T314 277Q314 305 307 316T283 328Q277 328 208 249L180 82Q205 75 225 71T252 68Q264 71 278 100Z" />
<glyph unicode="c" glyph-name="c" horiz-adv-x="396" d="M213 388T196 317T179 167Q179 122 192 104T241 85H341L329 21Q287 10 239 1T180 -9Q106 -9 62 32T18 145Q18 197 36 268T75 375Q107 400 187 436T289 473Q311 473 410 462L372 288H308L299 378Q263 397
246 397Q242 397 236 395Q213 388 196 317Z" />
<glyph unicode="d" glyph-name="d" horiz-adv-x="480" d="M468 661T482 642T495 615L402 88L444 77L434 17Q403 10 353 1T286 -9Q280 -9 267 9T254 36L270 155H260L250 138Q168 -8 162 -8Q83 -8 49 30T14 141Q14 198 32 268T72 375Q103 400 181 436T281 473Q288
473 321 468L337 564L295 575L306 635Q334 642 389 651T462 661Q468 661 482 642ZM210 136T280 218L307 383Q243 399 233 397Q221 394 207 364T182 287T171 187Q171 159 178 148T203 136Q210 136 280 218Z" />
<glyph unicode="e" glyph-name="e" horiz-adv-x="412" d="M423 323T388 282T295 218T174 193V169Q174 123 186 104T230 85Q247 85 270 91T319 104T355 115L370 49Q326 30 264 11T186 -9Q106 -9 60 31T14 145Q14 198 32 269T71 375Q103 400 183 436T285 473Q345
473 384 451T423 378Q423 323 388 282ZM215 390T201 348T179 247Q221 254 250 283T279 356Q279 375 271 386T247 397Q240 397 232 395Q215 390 201 348Z" />
<glyph unicode="f" glyph-name="f" horiz-adv-x="309" d="M266 572T257 521L246 461L349 459L334 379H232L181 88L239 73L227 7Q65 -9 56 -9Q49 -9 36 9T23 37L82 380H22L33 445L97 464L104 504Q107 524 143 562T221 630T282 661Q301 661 344 659T403 655Q408
648 417 629T427 605Q427 592 385 529Q383 530 356 542Q292 572 282 572Q266 572 257 521Z" />
<glyph unicode="g" glyph-name="g" horiz-adv-x="484" d="M290 473T364 462T464 445L383 -17Q378 -44 339 -83T255 -154T192 -185Q175 -185 102 -171T-25 -144L-7 -40L104 29Q61 43 40 79T19 171Q19 217 32 271T69 375Q99 400 178 436T278 473Q290 473 364 462ZM221
396T207 370T184 303T175 219Q175 144 212 133L280 206L309 381Q287 388 266 392T234 396Q221 396 207 370ZM221 -109T227 -84T244 -1L265 118H252L186 31L124 -52L122 -67Q142 -80 173 -94T213 -109Q221 -109 227 -84Z" />
<glyph unicode="h" glyph-name="h" horiz-adv-x="497" d="M466 344T459 304L418 85L459 74L449 14Q428 10 373 2T294 -9Q287 -9 273 9T260 36L301 261Q305 289 305 295Q305 310 300 317T283 324Q281 324 246 286Q235 273 207 243L184 100Q183 95 183 88Q183 68
200 59L195 8Q62 -9 55 -9Q49 -9 35 9T22 36L116 564L70 575L80 635Q109 642 162 651T233 661Q239 661 253 642T266 615L217 304H224Q318 472 323 472Q398 472 432 447T466 365Q466 344 459 304Z" />
<glyph unicode="i" glyph-name="i" horiz-adv-x="266" d="M53 -9T39 9T27 36L88 376L42 387L52 447Q81 454 138 463T213 473Q219 473 233 454T246 427L185 88L231 77L220 17Q195 11 136 1T60 -9Q53 -9 39 9ZM132 659L261 666L279 637L252 537H121L132 659Z" />
<glyph unicode="j" glyph-name="j" horiz-adv-x="262" d="M-42 -185T-123 -149L-109 -81Q-17 -81 -3 -75Q7 -71 13 -48T29 30L88 376L42 387L52 447Q81 454 138 463T213 473Q219 473 233 454T246 427L169 -17Q164 -45 128 -84T48 -154T-12 -185Q-42 -185 -123
-149ZM130 659L259 666L277 637L250 537H119L130 659Z" />
<glyph unicode="k" glyph-name="k" horiz-adv-x="472" d="M366 174T383 139T411 87L455 74L448 22Q314 -9 307 -9Q291 -9 264 47T220 163L228 214Q269 225 292 251T315 306Q315 318 309 325T290 333Q285 333 208 244L184 100Q183 95 183 88Q183 68 200 59L195
8Q62 -9 55 -9Q49 -9 35 9T22 36L116 564L70 575L80 635Q109 642 162 651T233 661Q239 661 253 642T266 615L217 304H224L255 358Q320 472 324 472Q399 472 432 445T466 364Q466 303 437 266T357 197Q366 174 383 139Z" />
<glyph unicode="l" glyph-name="l" horiz-adv-x="263" d="M49 -9T36 9T23 36L116 564L70 575L80 635Q107 642 165 651T241 661Q247 661 261 642T274 615L181 88L227 77L216 17Q183 10 128 1T56 -9Q49 -9 36 9Z" />
<glyph unicode="m" glyph-name="m" horiz-adv-x="733" d="M654 85L696 74L686 14Q537 -9 530 -9Q524 -9 510 9T497 36L538 261Q541 281 541 295Q541 310 536 317T519 324Q514 324 447 243Q422 104 422 91Q422 68 439 59L435 8Q403 3 359 -2T295 -9Q288 -9 274
9T262 36L302 261Q306 287 306 295Q306 310 301 317T284 324Q279 324 211 242L188 100Q187 95 187 88Q187 68 204 59L199 8Q67 -9 60 -9Q53 -9 39 9T27 36L88 376L42 387L52 447Q82 454 136 463T206 473Q212 473 225 454T237 427L220 304H229Q318 472 324 472Q400
472 432 448T464 365Q464 344 457 304H464Q470 316 474 322Q482 337 519 404T559 472Q635 472 668 447T702 365Q702 344 695 304L654 85Z" />
<glyph unicode="n" glyph-name="n" horiz-adv-x="502" d="M471 344T464 304L423 85L464 74L454 14Q305 -9 298 -9Q292 -9 278 9T265 36L306 261Q310 287 310 297Q310 324 288 324Q284 324 228 261Q227 260 211 241L188 100Q187 96 187 89Q187 68 204 59L199 8Q67
-9 60 -9Q53 -9 39 9T27 36L88 376L42 387L52 447Q82 454 136 463T206 473Q213 473 225 454T237 427L220 304H228L261 361Q323 472 328 472Q403 472 437 447T471 365Q471 344 464 304Z" />
<glyph unicode="o" glyph-name="o" horiz-adv-x="474" d="M109 -9T62 29T15 147Q15 199 33 269T72 375Q126 411 193 444T285 477Q372 477 416 437T460 319Q460 266 442 200T403 95Q379 75 335 51T249 9T196 -9Q109 -9 62 29ZM218 64T227 67Q235 69 244 73T260
81Q274 118 287 190T301 317Q301 356 289 378T252 401Q241 401 233 397Q220 393 206 358T183 269T174 161Q174 64 215 64Q218 64 227 67Z" />
<glyph unicode="p" glyph-name="p" horiz-adv-x="488" d="M405 473T439 434T474 323Q474 267 456 197T416 89Q384 65 306 29T207 -8Q199 -8 166 -3L151 -88L193 -99L183 -159Q154 -166 99 -175T26 -185Q20 -185 6 -167T-7 -140L84 376L42 387L52 447Q83 454 135
463T203 473Q209 473 222 454T235 427L219 309H228Q321 473 326 473Q405 473 439 434ZM266 71T280 100T305 177T316 277Q316 305 309 316T285 328Q278 328 209 246L180 82Q245 65 255 68Q266 71 280 100Z" />
<glyph unicode="q" glyph-name="q" horiz-adv-x="487" d="M372 -88L417 -99L407 -159Q376 -166 325 -175T258 -184Q251 -184 237 -166T224 -139L269 155H260L250 138Q168 -8 162 -8Q83 -8 49 30T14 141Q14 198 32 268T72 375Q103 400 181 436T281 473Q293 473
367 462T466 445L372 -88ZM210 136T278 216L307 383Q281 390 260 394T233 397Q221 394 207 364T182 287T171 187Q171 159 178 148T203 136Q210 136 278 216Z" />
<glyph unicode="r" glyph-name="r" horiz-adv-x="392" d="M336 477T371 468T424 451L385 249H332L324 330Q304 339 301 339Q299 339 270 308T212 244L188 100Q187 95 187 88Q187 66 208 59L203 8Q67 -9 60 -9Q53 -9 39 9T27 36L88 376L42 387L52 447Q82 454 136
463T206 473Q213 473 225 454T237 427L221 305H228L262 369Q318 477 322 477Q336 477 371 468Z" />
<glyph unicode="s" glyph-name="s" horiz-adv-x="408" d="M307 261T328 244T366 202T383 145Q383 132 380 114T371 82Q347 54 296 23T226 -9Q126 -9 0 6L32 176H95L106 92Q134 83 161 76T200 69Q208 69 216 80T225 105Q225 135 156 177Q103 210 76 238T49 311Q49
327 53 348T65 382Q95 409 144 441T208 473Q276 473 407 458L377 304H314L301 374Q225 394 206 394Q200 394 193 385T185 364Q185 347 201 333T251 298L269 286Q307 261 328 244Z" />
<glyph unicode="t" glyph-name="t" horiz-adv-x="323" d="M91 -9T76 8T49 46T38 79Q41 93 43 112L86 380H16L27 438L104 469L216 587Q230 587 268 573L251 459H347L333 380H236Q214 245 204 183T194 109Q194 98 197 93T209 87Q215 86 287 86L279 15Q236 8 174
0T98 -9Q91 -9 76 8Z" />
<glyph unicode="u" glyph-name="u" horiz-adv-x="501" d="M448 473T462 455T474 428L414 88L460 77L449 17Q420 10 367 1T298 -9Q292 -9 278 10T265 37L280 155H269L242 108Q235 97 205 45T171 -8Q99 -8 66 16T33 95Q33 125 38 151L80 379L39 390L48 450L152 465L204
473Q211 473 225 455T237 428L195 194Q191 164 191 158Q191 146 196 142T212 137Q218 137 289 215L313 364Q314 369 314 376Q314 397 297 405L302 456Q434 473 441 473Q448 473 462 455Z" />
<glyph unicode="v" glyph-name="v" horiz-adv-x="458" d="M110 -4L67 369L14 382L21 443Q60 451 109 460T181 472Q185 472 202 454T220 429L225 212L219 103H231Q251 150 277 231T319 375L269 394L281 459Q309 463 362 467T437 473Q442 473 458 454T474 428Q464
380 429 295T350 124T270 -9L110 -4Z" />
<glyph unicode="w" glyph-name="w" horiz-adv-x="681" d="M671 473T687 454T703 428Q684 353 637 244T536 43L502 -9L339 -4L325 139H312Q290 67 278 31L246 -9L89 -4L64 372L27 385L36 447Q61 453 109 461T178 472Q182 472 200 454T217 429L207 212L202 107H214L265
214Q288 266 308 305L301 371L251 385L259 447Q283 452 337 461T413 472Q417 472 434 454T452 429L455 213L449 103H460Q483 156 507 229T549 376L498 394L510 462Q538 466 591 469T666 473Q671 473 687 454Z" />
<glyph unicode="x" glyph-name="x" horiz-adv-x="453" d="M455 473T464 444T472 405L311 231L371 93L418 79L409 15Q386 9 333 0T272 -9Q267 -9 253 7T233 34L181 162L124 78L162 69L150 -1Q137 -4 83 -6T7 -9Q-1 -9 -10 20T-17 59L141 235L82 371L35 385L44 448Q73
454 125 463T183 472Q188 472 202 456T220 429L269 306L332 386L290 394L302 464Q326 467 373 470T448 473Q455 473 464 444Z" />
<glyph unicode="y" glyph-name="y" horiz-adv-x="461" d="M463 473T479 454T495 428L273 -9L231 -166Q210 -173 181 -179T138 -186Q126 -186 109 -171T83 -142L177 6L96 15L69 369L20 382L27 443Q177 472 183 472Q187 472 204 454T222 429L221 212L211 113H226L337
375L287 394L298 459Q317 462 376 467T458 473Q463 473 479 454Z" />
<glyph unicode="z" glyph-name="z" horiz-adv-x="438" d="M344 184L416 183L387 0H24Q18 15 13 35T7 70Q154 249 238 357V371L137 362L115 296H48L67 460H419Q423 452 428 431T436 391L353 292Q279 203 199 104L198 86L315 96L344 184Z" />
<glyph unicode="{" glyph-name="braceleft" horiz-adv-x="360" d="M111 183L51 248L67 345L149 409L196 680H402L392 612L318 601L277 352L190 299L256 240L212 -25L283 -37L269 -112H63L111 183Z" />
<glyph unicode="|" glyph-name="bar" horiz-adv-x="261" d="M151 680H261L116 -181H6L151 680Z" />
<glyph unicode="}" glyph-name="braceright" horiz-adv-x="361" d="M0 -45L75 -33L116 221L204 275L137 333L180 593L110 604L123 680H329L282 390L342 325L327 228L244 164L196 -112H-10L0 -45Z" />
<glyph unicode="~" glyph-name="asciitilde" horiz-adv-x="621" d="M385 252T357 257T281 275Q234 289 215 289Q202 289 186 282T157 266T140 255L104 310Q139 345 180 376T241 408Q277 408 363 384Q429 367 448 367Q464 367 479 377T516 404L553 348Q523 316
479 284T416 252Q385 252 357 257Z" />
<glyph unicode="&#xa0;" glyph-name="uni00A0" horiz-adv-x="133" />
<glyph unicode="&#xa1;" glyph-name="exclamdown" horiz-adv-x="334" d="M142 457Q219 466 263 466Q270 466 280 453T289 434L262 334H130L142 457ZM47 -192T37 -180T27 -164L129 258Q138 259 170 264T216 269Q220 269 228 262T237 252L188 -170Q68 -192 52 -192Q47
-192 37 -180Z" />
<glyph unicode="&#xa2;" glyph-name="cent" horiz-adv-x="436" d="M246 430T233 395T211 309T203 207Q203 162 217 144T266 125H365L354 61Q316 51 255 39L236 -60H142L159 36Q105 47 74 86T43 185Q43 237 61 308T100 415Q119 430 158 450T238 487L256 597H351L336
512Q360 510 435 502L397 328H333L323 418Q290 438 271 438Q267 438 261 436Q246 430 233 395Z" />
<glyph unicode="&#xa3;" glyph-name="sterling" horiz-adv-x="587" d="M448 358L459 455Q422 463 389 469T347 475Q331 475 321 457T304 402T286 289V288H424L414 228H489L467 57H451L484 0H174Q127 0 76 -7T20 -15L16 62Q53 72 70 88T96 138T120 257Q121 265
125 288Q143 395 169 454T239 539T355 565Q422 565 573 544L527 358H448ZM262 183Q244 135 210 97L319 86L347 183H262Z" />
<glyph unicode="&#xa4;" glyph-name="currency" horiz-adv-x="615" d="M571 437T571 392Q571 345 555 300T511 217L564 151L499 89L446 155Q375 105 293 105Q251 105 216 118T155 156L80 91L36 152L112 218Q97 254 97 298Q97 347 112 393T157 477L100 547L165
607L219 539Q290 591 375 591Q459 591 512 541L586 606L629 544L555 479Q571 437 571 392ZM225 275T247 250T313 224Q374 224 409 268T444 378Q444 421 422 446T355 472Q293 472 259 428T225 317Q225 275 247 250Z" />
<glyph unicode="&#xa5;" glyph-name="yen" horiz-adv-x="615" d="M560 464L473 341H534L522 263H419L397 232L395 222H516L504 144H382L372 86L444 71L433 0H121L130 65L208 81L219 144H95L107 222H232L218 263H113L125 341H191L149 461L70 482L81 547H356L344
474L308 467L345 327H357L434 460L377 474L390 547H647L634 482L560 464Z" />
<glyph unicode="&#xa6;" glyph-name="brokenbar" horiz-adv-x="260" d="M151 678H260L197 307H88L151 678ZM68 185H177L115 -184H6L68 185Z" />
<glyph unicode="&#xa7;" glyph-name="section" horiz-adv-x="558" d="M422 447L424 526Q417 528 382 538T334 548Q327 548 314 533T301 507Q301 483 322 462T386 409Q438 370 463 342T489 279Q489 265 483 243T470 207Q456 187 386 132Q420 95 420 57Q420 39 414
17T401 -19Q388 -37 357 -57T294 -90T247 -104Q203 -104 138 -102T35 -95L76 74H145L139 -12Q147 -13 176 -18T229 -24Q234 -24 242 -11T251 14Q251 43 233 64T177 113Q135 145 114 170T93 235Q93 249 98 269T111 303Q139 334 199 371Q166 407 166 452Q166 487
182 519Q194 537 231 562T307 605T361 624Q387 623 435 619T527 611L490 447H422ZM331 259T315 277T264 319Q248 299 248 275Q248 254 265 235T316 191Q331 211 331 233Q331 259 315 277Z" />
<glyph unicode="&#xa8;" glyph-name="dieresis" horiz-adv-x="349" d="M76 659L205 666L223 637L197 537H66L76 659ZM274 659L403 666L421 637L395 537H264L274 659Z" />
<glyph unicode="&#xa9;" glyph-name="copyright" horiz-adv-x="835" d="M308 58T241 96T136 203T99 363Q99 485 153 586T303 745T519 804Q610 804 677 766T782 659T819 499Q819 377 765 276T615 117T399 58Q308 58 241 96ZM510 151T579 194T682 315T717 492Q717
596 666 653T506 711Q409 711 340 668T236 547T201 371Q201 266 252 209T412 151Q510 151 579 194ZM365 256T338 288T311 383Q311 457 348 541Q368 563 419 592T486 622Q505 621 538 619T599 614L569 476H523L527 551Q477 563 464 563Q451 563 438 531T417 456T409
384Q409 341 420 328T457 315L535 325V277Q500 269 460 263T410 256Q365 256 338 288Z" />
<glyph unicode="&#xaa;" glyph-name="ordfeminine" horiz-adv-x="445" d="M436 394L470 385L462 340Q447 336 398 329T334 321Q329 321 319 334T309 354L322 428Q296 388 269 355T237 321Q176 321 148 351T119 434Q119 475 133 527T162 611Q185 629 245 657T320
685Q331 685 399 677T484 664L436 394ZM273 429T294 451T333 497L353 610Q308 622 298 621Q290 619 278 599T258 545T249 466Q249 445 254 437T270 429Q273 429 294 451Z" />
<glyph unicode="&#xab;" glyph-name="guillemotleft" horiz-adv-x="522" d="M36 194L47 279L228 430L279 388L186 243L184 231L231 70L169 30L36 194ZM253 194L264 279L446 430L496 388L404 243L402 231L448 70L387 30L253 194Z" />
<glyph unicode="&#xac;" glyph-name="logicalnot" horiz-adv-x="459" d="M432 127H323L341 232H23L41 338H469L432 127Z" />
<glyph unicode="&#xad;" glyph-name="uni00AD" horiz-adv-x="339" d="M58 297H305L285 191H39L58 297Z" />
<glyph unicode="&#xae;" glyph-name="registered" horiz-adv-x="693" d="M226 219T166 280T106 441Q106 543 149 625T270 756T448 804Q566 804 626 743T687 581Q687 480 644 397T522 267T344 219Q226 219 166 280ZM430 300T484 335T568 429T598 560Q598 632 557
677T433 722Q362 722 308 687T225 593T196 461Q196 389 236 345T359 300Q430 300 484 335ZM260 406L287 410L323 618L299 624L304 654H445Q518 654 518 596Q518 562 502 534T459 493L458 485L485 416L509 408L505 378H425L393 483H369L356 412L379 408L375 378H256L260
406ZM398 524Q445 524 445 595Q445 607 441 613T425 619L394 616L377 524H398Z" />
<glyph unicode="&#xaf;" glyph-name="overscore" horiz-adv-x="305" d="M73 644H378L362 547H56L73 644Z" />
<glyph unicode="&#xb0;" glyph-name="degree" horiz-adv-x="317" d="M135 366T106 397T77 475Q77 512 95 546T147 603T225 625Q277 625 306 594T336 516Q336 479 318 444T266 388T187 366Q135 366 106 397ZM222 446T237 463T252 504Q252 521 242 533T214 545Q190
545 176 528T161 486Q161 469 171 458T198 446Q222 446 237 463Z" />
<glyph unicode="&#xb1;" glyph-name="plusminus" horiz-adv-x="586" d="M514 376L494 277H354L328 126H220L247 277H106L127 376H264L291 526H398L372 376H514ZM74 76H462L442 -23H54L74 76Z" />
<glyph unicode="&#xb2;" glyph-name="uni00B2" horiz-adv-x="444" d="M437 495L416 363H89L88 412L230 566Q246 584 253 597T261 624V627Q261 642 250 642Q240 642 196 623L181 561H120L134 696Q252 715 308 715Q424 715 424 639Q424 593 383 549L296 447L295
439H361L378 495H437Z" />
<glyph unicode="&#xb3;" glyph-name="uni00B3" horiz-adv-x="437" d="M425 538T425 490Q425 459 401 428T334 376T243 356Q219 357 174 360T101 368L112 427L172 426L220 427Q238 431 249 446T260 485Q260 495 256 501T245 507H186L195 562Q233 566 256 590T279
640Q279 657 269 657Q263 657 205 637L192 590H132L147 706Q253 717 300 717Q432 717 432 645Q432 595 366 562V554Q425 538 425 490Z" />
<glyph unicode="&#xb4;" glyph-name="acute" horiz-adv-x="219" d="M60 572L228 721L293 648L277 600L92 520L60 572Z" />
<glyph unicode="&#xb5;" glyph-name="uni00B5" horiz-adv-x="528" d="M468 472T482 455T495 429L474 306Q461 232 453 179T444 110Q444 84 453 76T489 66V15Q461 7 432 0T394 -8Q372 -8 345 7T302 47Q269 27 238 10T201 -8Q182 -8 164 -5Q157 -56 157 -72Q157
-110 164 -126T187 -147T242 -154L245 -211Q156 -240 141 -240Q127 -240 98 -214T46 -151T23 -86Q23 -61 54 126L55 131L100 380L62 391L72 453Q111 459 156 464T224 472Q230 472 244 455T257 429Q233 293 221 218T208 124Q208 80 246 80Q264 80 289 90Q289 117
325 306L338 380L300 391L310 453Q344 458 391 464T462 472Q468 472 482 455Z" />
<glyph unicode="&#xb6;" glyph-name="paragraph" horiz-adv-x="647" d="M684 533L620 518L550 101Q545 70 509 25T431 -54T372 -89Q351 -89 304 -79T218 -57L235 14Q339 14 349 17Q373 22 392 136L458 520L418 521L358 172L256 173Q185 174 143 220T101 357Q101
469 155 540T312 611H696L684 533Z" />
<glyph unicode="&#xb7;" glyph-name="middot" horiz-adv-x="262" d="M103 300T90 318T77 345L86 431Q111 436 151 441T210 447Q216 447 230 428T243 401L222 314Q203 311 167 307T110 300Q103 300 90 318Z" />
<glyph unicode="&#xb8;" glyph-name="cedilla" horiz-adv-x="199" d="M-71 -174Q-24 -153 -5 -143T15 -124Q15 -109 -35 -95L-39 -55L-3 11L69 8L61 -39Q97 -53 117 -72T138 -115Q138 -127 133 -144T120 -172Q92 -191 -48 -236L-71 -174Z" />
<glyph unicode="&#xb9;" glyph-name="uni00B9" horiz-adv-x="414" d="M401 421L390 363H92L103 423L187 436L218 617L131 611L140 676L315 719L376 687L334 431L401 421Z" />
<glyph unicode="&#xba;" glyph-name="ordmasculine" horiz-adv-x="425" d="M193 317T158 352T122 450Q122 486 132 527T163 607Q203 633 259 659T334 686Q404 686 437 653T471 560Q471 525 461 483T431 399Q403 376 342 347T265 317Q193 317 158 352ZM292 375L314
386Q322 408 330 469T338 568Q338 595 333 609T312 626Q307 627 296 627Q283 621 270 563T256 443Q256 409 263 391T284 373L292 375Z" />
<glyph unicode="&#xbb;" glyph-name="guillemotright" horiz-adv-x="542" d="M40 72L132 230L134 242L86 391L148 430L283 279L270 194L90 30L40 72ZM262 72L354 230L356 242L308 391L370 430L505 279L492 194L313 30L262 72Z" />
<glyph unicode="&#xbc;" glyph-name="onequarter" horiz-adv-x="1007" d="M641 587L630 529H332L343 589L427 602L458 783L371 777L380 842L555 885L616 853L574 597L641 587ZM919 74H860L847 0H718L731 74H554L553 147L699 344H907L874 154H933L919 74ZM745 154L764
261H757L685 160V154H745ZM652 625H770L370 -13H251L652 625Z" />
<glyph unicode="&#xbd;" glyph-name="onehalf" horiz-adv-x="1001" d="M641 587L630 529H332L343 589L427 602L458 783L371 777L380 842L555 885L616 853L574 597L641 587ZM929 132L908 0H581L580 49L722 203Q738 221 745 234T753 261V264Q753 279 742 279Q732
279 688 260L673 198H612L626 333Q744 352 800 352Q916 352 916 276Q916 230 875 186L788 84L787 76H853L870 132H929ZM651 625H769L369 -13H250L651 625Z" />
<glyph unicode="&#xbe;" glyph-name="threequarters" horiz-adv-x="976" d="M665 704T665 656Q665 625 641 594T574 542T483 522Q459 523 414 526T341 534L352 593L412 592L460 593Q478 597 489 612T500 651Q500 661 496 667T485 673H426L435 728Q473 732 496
756T519 806Q519 823 509 823Q503 823 445 803L432 756H372L387 872Q493 883 540 883Q672 883 672 811Q672 761 606 728V720Q665 704 665 656ZM888 74H829L816 0H687L700 74H523L522 147L668 344H876L843 154H902L888 74ZM714 154L733 261H726L654 160V154H714ZM625
625H743L343 -13H224L625 625Z" />
<glyph unicode="&#xbf;" glyph-name="questiondown" horiz-adv-x="470" d="M387 460T399 446T409 425L379 326L257 334L264 454Q327 460 380 460Q387 460 399 446ZM298 13H378L353 -169Q215 -199 140 -199Q70 -199 32 -174T-7 -91Q-7 -45 12 -10T59 52T138 116L168
139Q205 168 224 195T253 269Q262 270 294 275T340 280Q344 280 352 273T360 262L347 178Q341 138 315 108T243 43Q181 -3 161 -30T141 -89Q141 -116 157 -116Q170 -116 224 -102L260 -93L298 13Z" />
<glyph unicode="&#xc0;" glyph-name="Agrave" horiz-adv-x="609" d="M588 65L578 0H298L309 73L372 86L364 176H202L168 89L242 73L230 0H-50L-40 65L29 80L288 611L454 620L471 602L531 79L588 65ZM236 260H358L344 492H335L236 260ZM276 694L267 739L334 830L493
720L461 658L276 694Z" />
<glyph unicode="&#xc1;" glyph-name="Aacute" horiz-adv-x="609" d="M588 65L578 0H298L309 73L372 86L364 176H202L168 89L242 73L230 0H-50L-40 65L29 80L288 611L454 620L471 602L531 79L588 65ZM236 260H358L344 492H335L236 260ZM276 720L471 826L518 739L493
694L287 658L276 720Z" />
<glyph unicode="&#xc2;" glyph-name="Acircumflex" horiz-adv-x="609" d="M588 65L578 0H298L309 73L372 86L364 176H202L168 89L242 73L230 0H-50L-40 65L29 80L288 611L454 620L471 602L531 79L588 65ZM236 260H358L344 492H335L236 260ZM227 710L359 829H452L545
703L481 659L389 714H382L272 659L227 710Z" />
<glyph unicode="&#xc3;" glyph-name="Atilde" horiz-adv-x="609" d="M588 65L578 0H298L309 73L372 86L364 176H202L168 89L242 73L230 0H-50L-40 65L29 80L288 611L454 620L471 602L531 79L588 65ZM236 260H358L344 492H335L236 260ZM425 662T405 669T362 690Q336
703 329 703Q318 703 270 671L229 722Q253 748 290 780T343 813Q358 813 377 806T422 785Q429 782 443 776T464 769Q471 769 488 780T517 803L561 751Q542 729 502 696T445 662Q425 662 405 669Z" />
<glyph unicode="&#xc4;" glyph-name="Adieresis" horiz-adv-x="609" d="M588 65L578 0H298L309 73L372 86L364 176H202L168 89L242 73L230 0H-50L-40 65L29 80L288 611L454 620L471 602L531 79L588 65ZM236 260H358L344 492H335L236 260ZM227 782L357 789L374
760L348 660H217L227 782ZM430 782L559 789L577 760L551 660H419L430 782Z" />
<glyph unicode="&#xc5;" glyph-name="Aring" horiz-adv-x="609" d="M588 65L578 0H298L309 73L372 86L364 176H202L168 89L242 73L230 0H-50L-40 65L29 80L288 611L454 620L471 602L531 79L588 65ZM236 260H358L344 492H335L236 260ZM337 656T314 675T291 736Q291
801 325 840T422 880Q468 880 492 861T516 797Q516 734 480 695T382 656Q337 656 314 675ZM405 728T421 735Q431 763 431 784Q431 798 426 803T409 808Q402 808 395 805T385 801Q382 793 379 776T375 749Q375 737 380 733T395 728Q405 728 421 735Z" />
<glyph unicode="&#xc6;" glyph-name="AE" horiz-adv-x="752" d="M663 393L668 535L523 526L495 362L626 357L612 274L479 269L449 93L600 80L640 223H720L686 0H213L224 65L285 79L301 176H155L102 87L165 73L153 0H-127L-117 65L-38 82L255 524L166 546L176 611H780L744
393H663ZM360 516H357L205 260H316L360 516Z" />
<glyph unicode="&#xc7;" glyph-name="Ccedilla" horiz-adv-x="484" d="M392 399L400 524Q362 532 331 532Q306 532 287 524Q266 515 246 453T213 314T199 191Q199 132 223 113T293 93H332L372 216L451 215L421 14Q398 8 294 -2L288 -39Q324 -53 344 -72T365 -115Q365
-127 360 -144T347 -172Q319 -191 179 -236L156 -174Q203 -153 222 -143T242 -124Q242 -109 192 -95L188 -55L213 -8Q208 -9 202 -9Q162 -9 123 11T56 76T29 190Q29 256 50 349T100 505Q151 541 234 581T341 622Q369 622 425 619T520 613L476 399H392Z" />
<glyph unicode="&#xc8;" glyph-name="Egrave" horiz-adv-x="512" d="M423 393L428 533L290 520L263 362L386 357L372 274L247 269L217 93L359 80L399 223H480L446 0H-19L-8 65L53 79L130 532L73 546L83 611H539L503 393H423ZM219 694L210 739L277 830L436 720L404
658L219 694Z" />
<glyph unicode="&#xc9;" glyph-name="Eacute" horiz-adv-x="512" d="M423 393L428 533L290 520L263 362L386 357L372 274L247 269L217 93L359 80L399 223H480L446 0H-19L-8 65L53 79L130 532L73 546L83 611H539L503 393H423ZM212 720L407 826L454 739L429 694L223
658L212 720Z" />
<glyph unicode="&#xca;" glyph-name="Ecircumflex" horiz-adv-x="512" d="M423 393L428 533L290 520L263 362L386 357L372 274L247 269L217 93L359 80L399 223H480L446 0H-19L-8 65L53 79L130 532L73 546L83 611H539L503 393H423ZM171 710L303 829H396L489 703L425
659L333 714H326L216 659L171 710Z" />
<glyph unicode="&#xcb;" glyph-name="Edieresis" horiz-adv-x="512" d="M423 393L428 533L290 520L263 362L386 357L372 274L247 269L217 93L359 80L399 223H480L446 0H-19L-8 65L53 79L130 532L73 546L83 611H539L503 393H423ZM170 782L300 789L317 760L291 660H160L170
782ZM373 782L502 789L520 760L494 660H362L373 782Z" />
<glyph unicode="&#xcc;" glyph-name="Igrave" horiz-adv-x="322" d="M291 525L216 86L277 73L265 0H-19L-9 65L53 79L130 532L73 546L83 611H367L356 538L291 525ZM130 694L121 739L188 830L347 720L315 658L130 694Z" />
<glyph unicode="&#xcd;" glyph-name="Iacute" horiz-adv-x="322" d="M291 525L216 86L277 73L265 0H-19L-9 65L53 79L130 532L73 546L83 611H367L356 538L291 525ZM123 720L318 826L365 739L340 694L134 658L123 720Z" />
<glyph unicode="&#xce;" glyph-name="Icircumflex" horiz-adv-x="322" d="M291 525L216 86L277 73L265 0H-19L-9 65L53 79L130 532L73 546L83 611H367L356 538L291 525ZM82 710L214 829H307L400 703L336 659L244 714H237L127 659L82 710Z" />
<glyph unicode="&#xcf;" glyph-name="Idieresis" horiz-adv-x="322" d="M291 525L216 86L277 73L265 0H-19L-9 65L53 79L130 532L73 546L83 611H367L356 538L291 525ZM81 782L211 789L228 760L202 660H71L81 782ZM284 782L413 789L431 760L405 660H273L284 782Z" />
<glyph unicode="&#xd0;" glyph-name="Eth" horiz-adv-x="596" d="M500 611T547 564T594 420Q594 318 564 221T474 62T331 0H-19L-9 65L53 80L87 279H34L44 337H97L130 532L73 546L83 611H431Q500 611 547 564ZM326 77T357 136T406 279T423 433Q423 491 410 515T367
539Q350 539 292 529L259 337H355L345 279H249L216 85Q278 77 285 77Q326 77 357 136Z" />
<glyph unicode="&#xd1;" glyph-name="Ntilde" horiz-adv-x="638" d="M677 546L616 531L526 7L385 -7L361 9L301 185Q286 227 269 282T246 361H234L198 89L264 73L252 0H-19L-9 65L53 79L131 534L73 546L83 611H304L367 394L417 223H428L474 523L406 538L418 611H687L677
546ZM436 662T416 669T373 690Q347 703 340 703Q329 703 281 671L240 722Q264 748 301 780T354 813Q369 813 388 806T433 785Q440 782 454 776T475 769Q482 769 499 780T528 803L572 751Q553 729 513 696T456 662Q436 662 416 669Z" />
<glyph unicode="&#xd2;" glyph-name="Ograve" horiz-adv-x="582" d="M153 -12T91 36T29 192Q29 258 51 351T101 505Q151 541 234 581T342 622Q460 622 521 575T583 420Q583 354 562 264T512 105Q480 79 430 52T334 7T271 -12Q153 -12 91 36ZM296 73T319 83T353
100Q374 154 393 257T412 419Q412 479 395 506T338 533Q310 533 288 524Q267 515 247 453T213 314T199 191Q199 147 206 122T233 85T291 73Q296 73 319 83ZM256 694L247 739L314 830L473 720L441 658L256 694Z" />
<glyph unicode="&#xd3;" glyph-name="Oacute" horiz-adv-x="582" d="M153 -12T91 36T29 192Q29 258 51 351T101 505Q151 541 234 581T342 622Q460 622 521 575T583 420Q583 354 562 264T512 105Q480 79 430 52T334 7T271 -12Q153 -12 91 36ZM296 73T319 83T353
100Q374 154 393 257T412 419Q412 479 395 506T338 533Q310 533 288 524Q267 515 247 453T213 314T199 191Q199 147 206 122T233 85T291 73Q296 73 319 83ZM256 720L451 826L498 739L473 694L267 658L256 720Z" />
<glyph unicode="&#xd4;" glyph-name="Ocircumflex" horiz-adv-x="582" d="M153 -12T91 36T29 192Q29 258 51 351T101 505Q151 541 234 581T342 622Q460 622 521 575T583 420Q583 354 562 264T512 105Q480 79 430 52T334 7T271 -12Q153 -12 91 36ZM296 73T319 83T353
100Q374 154 393 257T412 419Q412 479 395 506T338 533Q310 533 288 524Q267 515 247 453T213 314T199 191Q199 147 206 122T233 85T291 73Q296 73 319 83ZM207 710L339 829H432L525 703L461 659L369 714H362L252 659L207 710Z" />
<glyph unicode="&#xd5;" glyph-name="Otilde" horiz-adv-x="582" d="M153 -12T91 36T29 192Q29 258 51 351T101 505Q151 541 234 581T342 622Q460 622 521 575T583 420Q583 354 562 264T512 105Q480 79 430 52T334 7T271 -12Q153 -12 91 36ZM296 73T319 83T353
100Q374 154 393 257T412 419Q412 479 395 506T338 533Q310 533 288 524Q267 515 247 453T213 314T199 191Q199 147 206 122T233 85T291 73Q296 73 319 83ZM405 662T385 669T342 690Q316 703 309 703Q298 703 250 671L209 722Q233 748 270 780T323 813Q338 813
357 806T402 785Q409 782 423 776T444 769Q451 769 468 780T497 803L541 751Q522 729 482 696T425 662Q405 662 385 669Z" />
<glyph unicode="&#xd6;" glyph-name="Odieresis" horiz-adv-x="582" d="M153 -12T91 36T29 192Q29 258 51 351T101 505Q151 541 234 581T342 622Q460 622 521 575T583 420Q583 354 562 264T512 105Q480 79 430 52T334 7T271 -12Q153 -12 91 36ZM296 73T319 83T353
100Q374 154 393 257T412 419Q412 479 395 506T338 533Q310 533 288 524Q267 515 247 453T213 314T199 191Q199 147 206 122T233 85T291 73Q296 73 319 83ZM207 782L337 789L354 760L328 660H197L207 782ZM410 782L539 789L557 760L531 660H399L410 782Z" />
<glyph unicode="&#xd7;" glyph-name="multiply" horiz-adv-x="584" d="M362 229L467 98L383 24L278 156L128 26L66 107L214 236L109 368L193 438L297 309L451 444L516 363L362 229Z" />
<glyph unicode="&#xd8;" glyph-name="Oslash" horiz-adv-x="582" d="M534 564Q583 513 583 420Q583 354 562 264T512 105Q480 79 430 52T334 7T271 -12Q189 -12 135 10L86 -57L34 -62L17 -45L81 44Q29 94 29 192Q29 258 51 351T101 505Q151 541 234 581T342 622Q427
622 480 599L533 672L585 676L600 655L534 564ZM268 516T249 460T216 332T199 209L402 491Q388 533 338 533Q310 533 288 524Q268 516 249 460ZM372 148T389 238T411 393L209 114Q218 92 237 83T291 73Q296 73 319 83T353 100Q372 148 389 238Z" />
<glyph unicode="&#xd9;" glyph-name="Ugrave" horiz-adv-x="626" d="M591 532L514 79L579 61L569 0H386L361 77Q217 -11 203 -11Q131 -11 92 21T52 113Q52 136 58 175T91 370L119 532L61 546L71 611H347L335 538L279 526Q259 403 245 331Q235 271 229 234T223
183Q223 151 233 139T262 127Q281 127 365 157L428 526L375 538L387 611H664L654 546L591 532ZM264 694L255 739L322 830L481 720L449 658L264 694Z" />
<glyph unicode="&#xda;" glyph-name="Uacute" horiz-adv-x="626" d="M591 532L514 79L579 61L569 0H386L361 77Q217 -11 203 -11Q131 -11 92 21T52 113Q52 136 58 175T91 370L119 532L61 546L71 611H347L335 538L279 526Q259 403 245 331Q235 271 229 234T223
183Q223 151 233 139T262 127Q281 127 365 157L428 526L375 538L387 611H664L654 546L591 532ZM264 720L459 826L506 739L481 694L275 658L264 720Z" />
<glyph unicode="&#xdb;" glyph-name="Ucircumflex" horiz-adv-x="626" d="M591 532L514 79L579 61L569 0H386L361 77Q217 -11 203 -11Q131 -11 92 21T52 113Q52 136 58 175T91 370L119 532L61 546L71 611H347L335 538L279 526Q259 403 245 331Q235 271 229 234T223
183Q223 151 233 139T262 127Q281 127 365 157L428 526L375 538L387 611H664L654 546L591 532ZM215 710L347 829H440L533 703L469 659L377 714H370L260 659L215 710Z" />
<glyph unicode="&#xdc;" glyph-name="Udieresis" horiz-adv-x="626" d="M591 532L514 79L579 61L569 0H386L361 77Q217 -11 203 -11Q131 -11 92 21T52 113Q52 136 58 175T91 370L119 532L61 546L71 611H347L335 538L279 526Q259 403 245 331Q235 271 229 234T223
183Q223 151 233 139T262 127Q281 127 365 157L428 526L375 538L387 611H664L654 546L591 532ZM215 782L345 789L362 760L336 660H205L215 782ZM418 782L547 789L565 760L539 660H407L418 782Z" />
<glyph unicode="&#xdd;" glyph-name="Yacute" horiz-adv-x="532" d="M338 87L411 73L399 0H83L93 65L174 81L200 240L107 528L37 546L47 611H325L313 538L268 529L312 342H322L423 526L365 538L377 611H557L568 551L366 249L338 87ZM249 720L444 826L491 739L466
694L260 658L249 720Z" />
<glyph unicode="&#xde;" glyph-name="Thorn" horiz-adv-x="516" d="M459 496T497 468T536 378Q536 309 508 255T428 169T307 138H225L216 89L301 73L289 0H-19L-9 65L53 79L130 532L73 546L83 611H364L352 544L292 528L286 496H394Q459 496 497 468ZM335 225T352
264T370 375Q370 402 359 414T327 426Q313 426 273 419L240 225H276Q335 225 352 264Z" />
<glyph unicode="&#xdf;" glyph-name="germandbls" horiz-adv-x="541" d="M410 332T421 317T456 278Q490 243 508 217T526 157Q526 124 512 92Q496 67 444 29T372 -9Q346 -9 286 -6T171 3L168 -17Q163 -45 127 -84T47 -154T-12 -185Q-44 -185 -123 -151L-109 -82Q-19
-82 -4 -75Q6 -71 12 -48T28 30L108 504Q111 524 147 562T227 630T294 661Q513 661 513 542Q513 506 497 480T452 420Q429 393 420 378T410 346Q410 332 421 317ZM263 345T284 376T344 446Q366 468 376 480T386 503Q386 532 360 544Q294 572 286 572Q270 572 261
521L189 107Q311 75 335 75Q345 75 353 88T362 116Q362 141 350 162T312 214Q287 243 275 263T263 307Q263 345 284 376Z" />
<glyph unicode="&#xe0;" glyph-name="agrave" horiz-adv-x="490" d="M402 88L448 77L438 17Q406 10 355 1T287 -9Q281 -9 267 9T254 36L270 155H260L250 138Q168 -8 162 -8Q83 -8 49 30T14 141Q14 198 32 268T72 375Q103 400 181 436T281 473Q293 473 367 462T466
445L402 88ZM210 136T279 217L306 383Q281 390 260 394T233 397Q221 394 207 364T182 287T171 187Q171 159 178 148T203 136Q210 136 279 217ZM170 619L182 668L252 721L388 572L344 520L170 619Z" />
<glyph unicode="&#xe1;" glyph-name="aacute" horiz-adv-x="490" d="M402 88L448 77L438 17Q406 10 355 1T287 -9Q281 -9 267 9T254 36L270 155H260L250 138Q168 -8 162 -8Q83 -8 49 30T14 141Q14 198 32 268T72 375Q103 400 181 436T281 473Q293 473 367 462T466
445L402 88ZM210 136T279 217L306 383Q281 390 260 394T233 397Q221 394 207 364T182 287T171 187Q171 159 178 148T203 136Q210 136 279 217ZM196 572L364 721L429 648L413 600L228 520L196 572Z" />
<glyph unicode="&#xe2;" glyph-name="acircumflex" horiz-adv-x="490" d="M402 88L448 77L438 17Q406 10 355 1T287 -9Q281 -9 267 9T254 36L270 155H260L250 138Q168 -8 162 -8Q83 -8 49 30T14 141Q14 198 32 268T72 375Q103 400 181 436T281 473Q293 473 367
462T466 445L402 88ZM210 136T279 217L306 383Q281 390 260 394T233 397Q221 394 207 364T182 287T171 187Q171 159 178 148T203 136Q210 136 279 217ZM138 569L272 711H368L456 562L401 519L310 596H303L184 519L138 569Z" />
<glyph unicode="&#xe3;" glyph-name="atilde" horiz-adv-x="490" d="M402 88L448 77L438 17Q406 10 355 1T287 -9Q281 -9 267 9T254 36L270 155H260L250 138Q168 -8 162 -8Q83 -8 49 30T14 141Q14 198 32 268T72 375Q103 400 181 436T281 473Q293 473 367 462T466
445L402 88ZM210 136T279 217L306 383Q281 390 260 394T233 397Q221 394 207 364T182 287T171 187Q171 159 178 148T203 136Q210 136 279 217ZM314 531T264 558Q238 571 231 571Q220 571 172 539L131 590Q155 616 192 648T245 681Q260 681 279 674T324 653Q331
650 345 644T366 637Q373 637 390 648T419 671L463 619Q444 597 404 564T347 531Q314 531 264 558Z" />
<glyph unicode="&#xe4;" glyph-name="adieresis" horiz-adv-x="490" d="M402 88L448 77L438 17Q406 10 355 1T287 -9Q281 -9 267 9T254 36L270 155H260L250 138Q168 -8 162 -8Q83 -8 49 30T14 141Q14 198 32 268T72 375Q103 400 181 436T281 473Q293 473 367 462T466
445L402 88ZM210 136T279 217L306 383Q281 390 260 394T233 397Q221 394 207 364T182 287T171 187Q171 159 178 148T203 136Q210 136 279 217ZM137 659L266 666L284 637L258 537H127L137 659ZM335 659L464 666L482 637L456 537H325L335 659Z" />
<glyph unicode="&#xe5;" glyph-name="aring" horiz-adv-x="490" d="M402 88L448 77L438 17Q406 10 355 1T287 -9Q281 -9 267 9T254 36L270 155H260L250 138Q168 -8 162 -8Q83 -8 49 30T14 141Q14 198 32 268T72 375Q103 400 181 436T281 473Q293 473 367 462T466
445L402 88ZM210 136T279 217L306 383Q281 390 260 394T233 397Q221 394 207 364T182 287T171 187Q171 159 178 148T203 136Q210 136 279 217ZM242 517T219 536T196 597Q196 662 231 701T327 741Q373 741 397 722T421 658Q421 595 385 556T287 517Q242 517 219
536ZM315 590T327 597Q331 606 334 620T337 645Q337 659 332 664T315 669Q303 669 291 662Q287 650 284 635T280 610Q280 599 285 595T301 590Q315 590 327 597Z" />
<glyph unicode="&#xe6;" glyph-name="ae" horiz-adv-x="668" d="M679 324T644 283T551 218T431 193Q430 185 430 169Q430 123 442 104T486 85Q504 85 528 91T610 115L626 49Q580 30 519 11T442 -9Q362 -9 316 31T270 145V157Q234 94 201 43T162 -8Q83 -8 49 30T14
141Q14 198 32 268T72 375Q103 400 181 436T281 473Q293 473 360 463T461 446Q522 473 541 473Q601 473 640 451T679 378Q679 324 644 283ZM284 260T298 305T327 375L329 376Q297 386 269 393T233 398Q221 395 207 365T182 287T171 187Q171 159 178 148T203 136Q209
136 277 214Q284 260 298 305ZM472 389T457 346T435 247Q477 254 506 283T535 357Q535 398 503 398Q494 398 488 396Q472 389 457 346Z" />
<glyph unicode="&#xe7;" glyph-name="ccedilla" horiz-adv-x="396" d="M213 388T196 317T179 167Q179 122 192 104T241 85H341L329 21Q278 9 223 -2L217 -39Q253 -53 273 -72T294 -115Q294 -127 289 -144T276 -172Q249 -192 108 -236L85 -174Q132 -153 151 -143T171
-124Q171 -109 121 -95L117 -55L144 -6Q85 4 52 44T18 145Q18 197 36 268T75 375Q107 400 187 436T289 473Q311 473 410 462L372 288H308L299 378Q263 397 246 397Q242 397 236 395Q213 388 196 317Z" />
<glyph unicode="&#xe8;" glyph-name="egrave" horiz-adv-x="412" d="M423 323T388 282T295 218T174 193V169Q174 123 186 104T230 85Q247 85 270 91T319 104T355 115L370 49Q326 30 264 11T186 -9Q106 -9 60 31T14 145Q14 198 32 269T71 375Q103 400 183 436T285
473Q345 473 384 451T423 378Q423 323 388 282ZM215 390T201 348T179 247Q221 254 250 283T279 356Q279 375 271 386T247 397Q240 397 232 395Q215 390 201 348ZM144 619L156 668L226 721L362 572L318 520L144 619Z" />
<glyph unicode="&#xe9;" glyph-name="eacute" horiz-adv-x="412" d="M423 323T388 282T295 218T174 193V169Q174 123 186 104T230 85Q247 85 270 91T319 104T355 115L370 49Q326 30 264 11T186 -9Q106 -9 60 31T14 145Q14 198 32 269T71 375Q103 400 183 436T285
473Q345 473 384 451T423 378Q423 323 388 282ZM215 390T201 348T179 247Q221 254 250 283T279 356Q279 375 271 386T247 397Q240 397 232 395Q215 390 201 348ZM170 572L338 721L403 648L387 600L202 520L170 572Z" />
<glyph unicode="&#xea;" glyph-name="ecircumflex" horiz-adv-x="412" d="M423 323T388 282T295 218T174 193V169Q174 123 186 104T230 85Q247 85 270 91T319 104T355 115L370 49Q326 30 264 11T186 -9Q106 -9 60 31T14 145Q14 198 32 269T71 375Q103 400 183
436T285 473Q345 473 384 451T423 378Q423 323 388 282ZM215 390T201 348T179 247Q221 254 250 283T279 356Q279 375 271 386T247 397Q240 397 232 395Q215 390 201 348ZM111 569L245 711H341L429 562L374 519L283 596H276L157 519L111 569Z" />
<glyph unicode="&#xeb;" glyph-name="edieresis" horiz-adv-x="412" d="M423 323T388 282T295 218T174 193V169Q174 123 186 104T230 85Q247 85 270 91T319 104T355 115L370 49Q326 30 264 11T186 -9Q106 -9 60 31T14 145Q14 198 32 269T71 375Q103 400 183 436T285
473Q345 473 384 451T423 378Q423 323 388 282ZM215 390T201 348T179 247Q221 254 250 283T279 356Q279 375 271 386T247 397Q240 397 232 395Q215 390 201 348ZM110 659L239 666L257 637L231 537H100L110 659ZM308 659L437 666L455 637L429 537H298L308 659Z"
/>
<glyph unicode="&#xec;" glyph-name="igrave" horiz-adv-x="266" d="M53 -9T39 9T27 36L88 376L42 387L52 447Q81 454 138 463T213 473Q219 473 233 454T246 427L185 88L231 77L220 17Q195 11 136 1T60 -9Q53 -9 39 9ZM67 619L79 668L149 721L285 572L241 520L67 619Z" />
<glyph unicode="&#xed;" glyph-name="iacute" horiz-adv-x="266" d="M53 -9T39 9T27 36L88 376L42 387L52 447Q81 454 138 463T213 473Q219 473 233 454T246 427L185 88L231 77L220 17Q195 11 136 1T60 -9Q53 -9 39 9ZM93 572L261 721L326 648L310 600L125 520L93 572Z" />
<glyph unicode="&#xee;" glyph-name="icircumflex" horiz-adv-x="266" d="M53 -9T39 9T27 36L88 376L42 387L52 447Q81 454 138 463T213 473Q219 473 233 454T246 427L185 88L231 77L220 17Q195 11 136 1T60 -9Q53 -9 39 9ZM34 569L168 711H264L352 562L297 519L206
596H199L80 519L34 569Z" />
<glyph unicode="&#xef;" glyph-name="idieresis" horiz-adv-x="266" d="M53 -9T39 9T27 36L88 376L42 387L52 447Q81 454 138 463T213 473Q219 473 233 454T246 427L185 88L231 77L220 17Q195 11 136 1T60 -9Q53 -9 39 9ZM33 659L162 666L180 637L154 537H23L33
659ZM231 659L360 666L378 637L352 537H221L231 659Z" />
<glyph unicode="&#xf0;" glyph-name="eth" horiz-adv-x="463" d="M495 555L429 523Q462 463 462 376Q462 263 427 176T328 40T185 -9Q175 -9 139 10T69 54T27 92Q17 128 17 167Q17 227 41 278T109 359T208 389Q214 389 245 378T303 355Q304 375 304 415Q304 441
301 460L232 427L195 456L196 482L277 521Q247 559 188 560L175 629Q203 631 217 631Q324 631 387 574L463 611L497 580L495 555ZM282 65T300 285Q260 306 244 306Q207 306 190 262T172 159Q172 120 179 93T196 65Q282 65 300 285Z" />
<glyph unicode="&#xf1;" glyph-name="ntilde" horiz-adv-x="502" d="M471 344T464 304L423 85L464 74L454 14Q305 -9 298 -9Q292 -9 278 9T265 36L306 261Q310 287 310 297Q310 324 288 324Q284 324 228 261Q227 260 211 241L188 100Q187 96 187 89Q187 68 204
59L199 8Q67 -9 60 -9Q53 -9 39 9T27 36L88 376L42 387L52 447Q82 454 136 463T206 473Q213 473 225 454T237 427L220 304H228L261 361Q323 472 328 472Q403 472 437 447T471 365Q471 344 464 304ZM321 531T271 558Q245 571 238 571Q227 571 179 539L138 590Q162
616 199 648T252 681Q267 681 286 674T331 653Q338 650 352 644T373 637Q380 637 397 648T426 671L470 619Q451 597 411 564T354 531Q321 531 271 558Z" />
<glyph unicode="&#xf2;" glyph-name="ograve" horiz-adv-x="474" d="M109 -9T62 29T15 147Q15 199 33 269T72 375Q126 411 193 444T285 477Q372 477 416 437T460 319Q460 266 442 200T403 95Q379 75 335 51T249 9T196 -9Q109 -9 62 29ZM218 64T227 67Q235 69 244
73T260 81Q274 118 287 190T301 317Q301 356 289 378T252 401Q241 401 233 397Q220 393 206 358T183 269T174 161Q174 64 215 64Q218 64 227 67ZM169 619L181 668L251 721L387 572L343 520L169 619Z" />
<glyph unicode="&#xf3;" glyph-name="oacute" horiz-adv-x="474" d="M109 -9T62 29T15 147Q15 199 33 269T72 375Q126 411 193 444T285 477Q372 477 416 437T460 319Q460 266 442 200T403 95Q379 75 335 51T249 9T196 -9Q109 -9 62 29ZM218 64T227 67Q235 69 244
73T260 81Q274 118 287 190T301 317Q301 356 289 378T252 401Q241 401 233 397Q220 393 206 358T183 269T174 161Q174 64 215 64Q218 64 227 67ZM195 572L363 721L428 648L412 600L227 520L195 572Z" />
<glyph unicode="&#xf4;" glyph-name="ocircumflex" horiz-adv-x="474" d="M109 -9T62 29T15 147Q15 199 33 269T72 375Q126 411 193 444T285 477Q372 477 416 437T460 319Q460 266 442 200T403 95Q379 75 335 51T249 9T196 -9Q109 -9 62 29ZM218 64T227 67Q235
69 244 73T260 81Q274 118 287 190T301 317Q301 356 289 378T252 401Q241 401 233 397Q220 393 206 358T183 269T174 161Q174 64 215 64Q218 64 227 67ZM136 569L270 711H366L454 562L399 519L308 596H301L182 519L136 569Z" />
<glyph unicode="&#xf5;" glyph-name="otilde" horiz-adv-x="474" d="M109 -9T62 29T15 147Q15 199 33 269T72 375Q126 411 193 444T285 477Q372 477 416 437T460 319Q460 266 442 200T403 95Q379 75 335 51T249 9T196 -9Q109 -9 62 29ZM218 64T227 67Q235 69 244
73T260 81Q274 118 287 190T301 317Q301 356 289 378T252 401Q241 401 233 397Q220 393 206 358T183 269T174 161Q174 64 215 64Q218 64 227 67ZM312 531T262 558Q236 571 229 571Q218 571 170 539L129 590Q153 616 190 648T243 681Q258 681 277 674T322 653Q329
650 343 644T364 637Q371 637 388 648T417 671L461 619Q442 597 402 564T345 531Q312 531 262 558Z" />
<glyph unicode="&#xf6;" glyph-name="odieresis" horiz-adv-x="474" d="M109 -9T62 29T15 147Q15 199 33 269T72 375Q126 411 193 444T285 477Q372 477 416 437T460 319Q460 266 442 200T403 95Q379 75 335 51T249 9T196 -9Q109 -9 62 29ZM218 64T227 67Q235 69
244 73T260 81Q274 118 287 190T301 317Q301 356 289 378T252 401Q241 401 233 397Q220 393 206 358T183 269T174 161Q174 64 215 64Q218 64 227 67ZM135 659L264 666L282 637L256 537H125L135 659ZM333 659L462 666L480 637L454 537H323L333 659Z" />
<glyph unicode="&#xf7;" glyph-name="divide" horiz-adv-x="599" d="M225 -7T211 11T198 38L208 125Q233 130 273 135T332 140Q338 140 352 121T365 95L344 8Q325 4 288 0T231 -7Q225 -7 211 11ZM364 305H776L756 205H344L364 305ZM285 366T271 384T258 411L268
498Q293 503 333 508T392 513Q398 513 412 494T425 468L404 381Q385 377 348 373T291 366Q285 366 271 384Z" />
<glyph unicode="&#xf8;" glyph-name="oslash" horiz-adv-x="474" d="M460 398T460 319Q460 266 442 200T403 95Q379 75 335 51T249 9T196 -9Q162 -9 132 -3L79 -86L25 -91L7 -69L68 25Q15 66 15 147Q15 199 33 269T72 375Q126 411 193 444T285 477Q320 477 352
469L394 535L451 541L466 518L414 438Q460 398 460 319ZM215 391T197 330T175 193L291 374Q278 401 252 401Q241 401 233 397Q215 391 197 330ZM235 69T244 73T260 81Q270 107 281 156T297 254L187 82Q198 64 215 64Q218 64 227 67Q235 69 244 73Z" />
<glyph unicode="&#xf9;" glyph-name="ugrave" horiz-adv-x="501" d="M448 473T462 455T474 428L414 88L460 77L449 17Q420 10 367 1T298 -9Q292 -9 278 10T265 37L280 155H269L242 108Q235 97 205 45T171 -8Q99 -8 66 16T33 95Q33 125 38 151L80 379L39 390L48
450L152 465L204 473Q211 473 225 455T237 428L195 194Q191 164 191 158Q191 146 196 142T212 137Q218 137 289 215L313 364Q314 369 314 376Q314 397 297 405L302 456Q434 473 441 473Q448 473 462 455ZM156 619L168 668L238 721L374 572L330 520L156 619Z" />
<glyph unicode="&#xfa;" glyph-name="uacute" horiz-adv-x="501" d="M448 473T462 455T474 428L414 88L460 77L449 17Q420 10 367 1T298 -9Q292 -9 278 10T265 37L280 155H269L242 108Q235 97 205 45T171 -8Q99 -8 66 16T33 95Q33 125 38 151L80 379L39 390L48
450L152 465L204 473Q211 473 225 455T237 428L195 194Q191 164 191 158Q191 146 196 142T212 137Q218 137 289 215L313 364Q314 369 314 376Q314 397 297 405L302 456Q434 473 441 473Q448 473 462 455ZM182 572L350 721L415 648L399 600L214 520L182 572Z" />
<glyph unicode="&#xfb;" glyph-name="ucircumflex" horiz-adv-x="501" d="M448 473T462 455T474 428L414 88L460 77L449 17Q420 10 367 1T298 -9Q292 -9 278 10T265 37L280 155H269L242 108Q235 97 205 45T171 -8Q99 -8 66 16T33 95Q33 125 38 151L80 379L39 390L48
450L152 465L204 473Q211 473 225 455T237 428L195 194Q191 164 191 158Q191 146 196 142T212 137Q218 137 289 215L313 364Q314 369 314 376Q314 397 297 405L302 456Q434 473 441 473Q448 473 462 455ZM124 569L258 711H354L442 562L387 519L296 596H289L170
519L124 569Z" />
<glyph unicode="&#xfc;" glyph-name="udieresis" horiz-adv-x="501" d="M448 473T462 455T474 428L414 88L460 77L449 17Q420 10 367 1T298 -9Q292 -9 278 10T265 37L280 155H269L242 108Q235 97 205 45T171 -8Q99 -8 66 16T33 95Q33 125 38 151L80 379L39 390L48
450L152 465L204 473Q211 473 225 455T237 428L195 194Q191 164 191 158Q191 146 196 142T212 137Q218 137 289 215L313 364Q314 369 314 376Q314 397 297 405L302 456Q434 473 441 473Q448 473 462 455ZM122 659L251 666L269 637L243 537H112L122 659ZM320 659L449
666L467 637L441 537H310L320 659Z" />
<glyph unicode="&#xfd;" glyph-name="yacute" horiz-adv-x="461" d="M463 473T479 454T495 428L273 -9L231 -166Q210 -173 181 -179T138 -186Q126 -186 109 -171T83 -142L177 6L96 15L69 369L20 382L27 443Q177 472 183 472Q187 472 204 454T222 429L221 212L211
113H226L337 375L287 394L298 459Q317 462 376 467T458 473Q463 473 479 454ZM174 572L342 721L407 648L391 600L206 520L174 572Z" />
<glyph unicode="&#xfe;" glyph-name="thorn" horiz-adv-x="487" d="M403 473T437 434T472 323Q472 266 454 196T414 89Q383 65 305 29T206 -8Q199 -8 164 -3L150 -88L192 -99L181 -159Q155 -165 98 -175T24 -185Q18 -185 5 -167T-8 -139L116 564L70 575L80 635Q108
641 164 651T238 661Q244 661 257 642T270 615L218 309H226Q320 473 324 473Q403 473 437 434ZM265 70T279 100T304 177T315 277Q315 305 308 316T284 328Q280 328 262 308T222 264L207 246L179 82Q241 64 254 67Q265 70 279 100Z" />
<glyph unicode="&#xff;" glyph-name="ydieresis" horiz-adv-x="461" d="M463 473T479 454T495 428L273 -9L231 -166Q210 -173 181 -179T138 -186Q126 -186 109 -171T83 -142L177 6L96 15L69 369L20 382L27 443Q177 472 183 472Q187 472 204 454T222 429L221 212L211
113H226L337 375L287 394L298 459Q317 462 376 467T458 473Q463 473 479 454ZM115 659L244 666L262 637L236 537H105L115 659ZM313 659L442 666L460 637L434 537H303L313 659Z" />
<glyph unicode="&#x2013;" glyph-name="endash" horiz-adv-x="463" d="M58 297H429L410 193H39L58 297Z" />
<glyph unicode="&#x2014;" glyph-name="emdash" horiz-adv-x="835" d="M58 297H801L782 193H39L58 297Z" />
<glyph unicode="&#x2018;" glyph-name="quoteleft" horiz-adv-x="264" d="M111 401T97 419T84 446Q96 516 133 577T225 698L278 658Q239 579 227 545Q229 543 241 531T253 510L239 416Q214 411 175 406T118 401Q111 401 97 419Z" />
<glyph unicode="&#x2019;" glyph-name="quoteright" horiz-adv-x="265" d="M98 444Q134 515 149 557Q122 581 124 592L137 685Q163 690 202 695T258 701Q265 701 279 682T292 655Q280 585 243 524T151 404L98 444Z" />
<glyph unicode="&#x201a;" glyph-name="quotesinglbase" horiz-adv-x="259" d="M10 -95Q44 -28 54 -1L31 29L52 128Q120 134 160 134Q166 134 177 116T187 90L180 40Q173 15 136 -39T61 -132L10 -95Z" />
<glyph unicode="&#x201c;" glyph-name="quotedblleft" horiz-adv-x="459" d="M111 400T97 419T84 446Q96 516 133 577T225 697L278 657Q242 586 227 544Q229 542 241 530T253 509L239 416Q215 410 176 405T118 400Q111 400 97 419ZM306 400T292 419T279 446Q291
516 328 577T419 697L473 657Q438 591 422 544Q425 541 437 529T447 509L434 416Q410 410 371 405T312 400Q306 400 292 419Z" />
<glyph unicode="&#x201d;" glyph-name="quotedblright" horiz-adv-x="460" d="M98 443Q134 514 149 556Q148 557 135 569T124 591L137 684Q163 689 202 694T258 700Q265 700 279 681T292 654Q280 584 243 523T151 403L98 443ZM292 443Q306 470 320 500T343 556Q342
557 329 569T318 591L331 684Q357 689 396 694T453 700Q459 700 473 681T486 654Q475 584 438 524T346 403L292 443Z" />
<glyph unicode="&#x201e;" glyph-name="quotedblbase" horiz-adv-x="449" d="M10 -95Q44 -28 54 -1L31 29L52 128Q120 134 160 134Q166 134 177 116T187 90L180 40Q173 15 136 -39T61 -132L10 -95ZM200 -95Q234 -28 244 -1L221 29L242 128Q310 134 350 134Q356
134 367 116T377 90L370 40Q363 15 326 -39T251 -132L200 -95Z" />
<glyph unicode="&#x2022;" glyph-name="bullet" horiz-adv-x="488" d="M175 123T140 155T105 244Q105 293 128 335T192 402T281 427Q335 427 370 395T405 306Q405 257 382 215T318 148T229 123Q175 123 140 155Z" />
<glyph unicode="&#x2039;" glyph-name="guilsinglleft" horiz-adv-x="305" d="M36 194L47 279L228 430L279 388L186 243L184 231L231 70L169 30L36 194Z" />
<glyph unicode="&#x203a;" glyph-name="guilsinglright" horiz-adv-x="320" d="M40 72L132 230L134 242L86 391L148 430L283 279L270 194L90 30L40 72Z" />
</font>
</defs>
</svg>
