<?xml version="1.0" standalone="no"?>
<!DOCTYPE svg PUBLIC "-//W3C//DTD SVG 1.1//EN" "http://www.w3.org/Graphics/SVG/1.1/DTD/svg11.dtd">
<svg xmlns="http://www.w3.org/2000/svg">
<defs >
<font id="Grenze" horiz-adv-x="523" ><font-face
    font-family="Grenze Black"
    units-per-em="1000"
    panose-1="2 14 10 4 6 4 3 5 4 4"
    ascent="1100"
    descent="-380"
    alphabetic="0" />
<glyph unicode=" " glyph-name="space" horiz-adv-x="134" />
<glyph unicode="!" glyph-name="exclam" horiz-adv-x="358" d="M138 191T129 198T120 210L167 634Q299 658 319 658Q324 658 335 646T346 628L241 204Q158 191 143 191Q138 191 129 198ZM89 -9T77 5T67 26L95 128H241L228 1Q150 -9 96 -9Q89 -9 77 5Z" />
<glyph unicode="&quot;" glyph-name="quotedbl" horiz-adv-x="435" d="M126 683Q212 697 252 697Q257 697 268 684T279 667Q246 558 219 482L110 481L126 683ZM318 683Q404 697 444 697Q449 697 460 684T471 667L446 590Q426 524 411 482L302 481L318 683Z" />
<glyph unicode="#" glyph-name="numbersign" horiz-adv-x="580" d="M451 281L426 200H511L481 96H393L353 -31H250L289 96H217L177 -31H73L112 96H26L56 200H145L170 281H87L117 385H202L238 500H343L307 385H379L415 500H520L484 385H571L541 281H451ZM347 281H275L249
200H322L347 281Z" />
<glyph unicode="$" glyph-name="dollar" horiz-adv-x="495" d="M371 354L378 466Q304 482 274 482Q262 482 255 475T248 447Q248 417 271 393T341 334Q397 294 427 260T458 177Q458 139 443 103Q423 73 367 41T267 -4L249 -102H143L160 -8Q92 -6 5 1L49 222H142L134
99Q207 88 245 88Q255 88 266 102T278 128Q278 159 255 183T187 239Q133 278 105 309T77 386Q77 428 93 464Q108 486 154 513T247 560L266 669H373L356 573Q386 571 401 569Q486 562 506 560L464 354H371Z" />
<glyph unicode="%" glyph-name="percent" horiz-adv-x="866" d="M83 288T83 403Q83 498 131 555T267 613Q335 613 367 585T399 500Q399 407 350 348T217 288Q83 288 83 403ZM583 611H697L306 -9H192L583 611ZM250 365T273 380Q282 405 287 433T292 484Q292 512
284 523T255 535Q234 535 206 521Q199 499 195 472T190 422Q190 392 199 379T229 365Q250 365 273 380ZM488 -15T488 100Q488 195 536 252T672 310Q740 310 772 282T804 197Q804 104 755 45T622 -15Q488 -15 488 100ZM655 62T678 77Q687 102 692 130T697 181Q697
209 689 220T660 232Q639 232 611 218Q604 196 600 169T595 119Q595 89 604 76T634 62Q655 62 678 77Z" />
<glyph unicode="&amp;" glyph-name="ampersand" horiz-adv-x="636" d="M561 286L470 182Q525 114 557 84L605 71L593 0H393Q384 4 348 49L328 29Q297 17 252 4T200 -9Q128 -9 71 25T14 139Q14 197 51 242T148 327Q127 360 118 391T108 457Q108 481 114 505T131
541Q164 564 239 594T335 625Q395 625 435 607T476 552Q476 515 440 431H346L357 518Q359 535 348 545T320 555Q312 555 308 554Q288 550 288 502Q288 457 309 414Q338 355 413 255L442 293L401 305L414 372H642L628 297L561 286ZM265 77T299 114Q234 203 207 241Q192
199 192 138Q192 65 229 65Q239 65 252 71Q265 77 299 114Z" />
<glyph unicode="&apos;" glyph-name="quotesingle" horiz-adv-x="243" d="M126 683Q212 697 252 697Q257 697 268 684T279 667L254 590Q234 524 219 482L110 481L126 683Z" />
<glyph unicode="(" glyph-name="parenleft" horiz-adv-x="336" d="M117 -55T86 27T55 200Q55 338 123 470T313 690L379 644Q309 548 265 402T221 112Q221 59 229 10T253 -76L179 -122Q117 -55 86 27Z" />
<glyph unicode=")" glyph-name="parenright" horiz-adv-x="335" d="M-10 -76Q60 20 104 166T148 456Q148 509 140 558T116 644L190 690Q252 623 283 541T314 368Q314 230 246 98T56 -122L-10 -76Z" />
<glyph unicode="*" glyph-name="asterisk" horiz-adv-x="388" d="M174 395L202 469L141 419L112 423L90 509L177 532L96 560L141 644L170 648L217 596L214 688L307 695L323 674L293 595L353 645L380 640L407 557L317 532L397 505L348 422L318 420L276 469L282
381L187 372L174 395Z" />
<glyph unicode="+" glyph-name="plus" horiz-adv-x="600" d="M491 199H345L315 28H197L227 199H79L102 309H246L276 479H394L364 309H514L491 199Z" />
<glyph unicode="," glyph-name="comma" horiz-adv-x="246" d="M-11 -118Q24 -43 37 -5Q36 -4 22 9T10 33L23 127Q51 133 94 138T158 144Q165 144 179 124T193 94Q181 24 144 -38T48 -164L-11 -118Z" />
<glyph unicode="-" glyph-name="hyphen" horiz-adv-x="345" d="M61 302H310L288 186H40L61 302Z" />
<glyph unicode="." glyph-name="period" horiz-adv-x="283" d="M59 -16T45 3T31 33L40 120Q67 126 112 131T178 137Q185 137 200 116T213 87L191 -1Q73 -16 66 -16Q59 -16 45 3Z" />
<glyph unicode="/" glyph-name="slash" horiz-adv-x="434" d="M332 687H465L134 -118H1L332 687Z" />
<glyph unicode="0" glyph-name="zero" horiz-adv-x="520" d="M131 -9T77 34T23 164Q23 261 56 335T154 452T308 494Q407 494 461 451T515 321Q515 224 482 150T384 33T230 -9Q131 -9 77 34ZM272 75T288 84Q309 128 322 192T335 326Q335 410 285 410Q266 410 250
401Q229 357 216 293T203 159Q203 75 253 75Q272 75 288 84Z" />
<glyph unicode="1" glyph-name="one" horiz-adv-x="433" d="M394 72L382 0H-1L11 75L120 94L166 357L56 349L68 435L292 494L365 459L301 89L394 72Z" />
<glyph unicode="2" glyph-name="two" horiz-adv-x="512" d="M203 246Q247 288 263 310T279 361Q279 376 274 387T257 398Q245 398 165 358L142 278H66L88 453Q173 473 225 483T318 493Q382 493 420 465T459 380Q459 335 435 297T372 220L273 120L272 110H370L389
175H466L442 0H15L14 64L203 246Z" />
<glyph unicode="3" glyph-name="three" horiz-adv-x="471" d="M378 197T398 168T419 99Q419 31 366 -28T216 -122T-2 -154L20 -66Q82 -59 130 -36T206 22T234 99Q234 138 209 138H130L143 213Q187 225 215 252T256 310T268 368Q268 384 262 392T244 400Q233 400
157 364L132 273H56L78 453Q153 471 210 482T305 493Q369 493 407 465T446 380Q446 288 328 217L326 204Q378 197 398 168Z" />
<glyph unicode="4" glyph-name="four" horiz-adv-x="538" d="M250 34H8L9 108Q94 266 207 499L351 440L344 397Q322 361 261 277T161 146L159 132H267L281 218L417 264L450 248L430 132H495L479 34H413L389 -103H226L250 34Z" />
<glyph unicode="5" glyph-name="five" horiz-adv-x="458" d="M196 243Q254 263 259 263Q325 263 364 226T403 125Q403 58 360 -4T224 -108T-12 -155L10 -66Q115 -50 166 -11T218 97Q218 124 209 134T177 145Q162 145 79 122L41 188L117 482H344L360 542H439L415
359H229L196 243Z" />
<glyph unicode="6" glyph-name="six" horiz-adv-x="491" d="M369 471T308 423T219 306L246 318Q255 322 290 337T331 352Q396 352 431 312T466 214Q466 150 425 74Q411 60 368 41T281 6T225 -9Q121 -9 69 44T16 188Q16 278 70 366T230 513T488 574L466 485Q369
471 308 423ZM260 237T217 224Q212 222 195 217Q193 189 193 178Q193 121 205 98T247 75Q267 75 277 107T288 181Q288 205 282 221T265 237Q260 237 217 224Z" />
<glyph unicode="7" glyph-name="seven" horiz-adv-x="466" d="M436 475T456 445T477 399L178 -152Q165 -156 138 -160T100 -165Q91 -165 66 -139T25 -89L314 339L315 354H163L137 255H62L93 482H424Q436 475 456 445Z" />
<glyph unicode="8" glyph-name="eight" horiz-adv-x="477" d="M415 263T434 234T453 165Q453 140 443 114T420 70Q402 54 323 23T224 -9Q136 -9 76 21T15 128Q15 179 46 218T126 275Q101 298 87 324T73 382Q73 403 78 424T94 460Q116 481 191 517T290 553Q381
553 429 517T478 427Q478 383 452 349T380 292Q415 263 434 234ZM253 475T247 466T240 442Q240 416 256 394T304 349Q316 381 316 414Q316 441 302 458T263 475Q253 475 247 466ZM260 68T269 80T278 116Q278 144 260 166T207 213Q188 178 188 141Q188 109 204 89T245
68Q260 68 269 80Z" />
<glyph unicode="9" glyph-name="nine" horiz-adv-x="491" d="M381 493T433 440T486 296Q486 206 432 118T272 -29T14 -90L37 -1Q129 12 188 57T278 165L253 154Q236 147 206 135T171 122Q106 122 71 164T36 265Q36 299 46 338T77 410Q91 424 134 443T221 478T277
493Q381 493 433 440ZM247 237T305 257Q309 280 309 306Q309 360 295 384T251 408Q233 408 224 375T214 301Q214 272 219 255T237 237Q247 237 305 257Z" />
<glyph unicode=":" glyph-name="colon" horiz-adv-x="283" d="M113 324T99 343T85 373L94 460Q121 466 166 471T232 477Q239 477 253 456T267 427L245 339Q127 324 120 324Q113 324 99 343ZM56 -16T42 3T28 33L37 120Q64 126 109 131T175 137Q182 137 197 116T210
87L188 -1Q70 -16 63 -16Q56 -16 42 3Z" />
<glyph unicode=";" glyph-name="semicolon" horiz-adv-x="246" d="M98 324T84 343T70 373L79 460Q106 466 151 471T217 477Q224 477 239 456T252 427L230 339Q112 324 105 324Q98 324 84 343ZM-14 -118Q21 -43 34 -5Q33 -4 19 9T7 33L20 127Q48 133 91 138T155
144Q162 144 176 124T190 94Q178 24 141 -38T45 -164L-14 -118Z" />
<glyph unicode="&lt;" glyph-name="less" horiz-adv-x="600" d="M65 163L88 313L540 494L520 360L192 235L479 105L458 -18L65 163Z" />
<glyph unicode="=" glyph-name="equal" horiz-adv-x="600" d="M131 399H528L509 291H112L131 399ZM101 217H498L478 109H81L101 217Z" />
<glyph unicode="&gt;" glyph-name="greater" horiz-adv-x="600" d="M79 116L407 241L120 371L141 494L534 313L511 163L59 -18L79 116Z" />
<glyph unicode="?" glyph-name="question" horiz-adv-x="489" d="M516 662T516 547Q516 501 497 466T450 404T370 339L342 318Q301 287 281 261T250 188Q169 175 153 175Q148 175 139 182T130 194L143 282Q149 324 176 356T248 422Q310 467 330 493T350 549Q350
572 335 572Q328 572 270 557L235 547L193 436H105L133 627Q277 662 358 662Q516 662 516 547ZM109 131L249 122L242 -2Q176 -9 112 -9Q104 -9 91 7T79 30L109 131Z" />
<glyph unicode="@" glyph-name="at" horiz-adv-x="1008" d="M800 719T899 644T998 420Q998 347 971 269T901 124T807 15Q774 9 675 0T551 -9Q544 -9 530 10T516 40L534 144Q500 83 471 38T435 -8Q351 -8 315 30T279 141Q279 194 298 268T338 380Q372 405 454 441T560
477Q572 477 649 465T752 448L689 95L755 84Q840 244 840 408Q840 517 771 568T595 619Q532 619 468 602T353 557Q313 522 277 448T218 288T195 131Q195 -16 258 -80T457 -144Q488 -144 522 -141L521 -214Q444 -231 381 -231Q274 -231 197 -189T79 -69T38 112Q38
281 111 420T315 639T610 719Q800 719 899 644ZM492 159T509 173T544 207L574 382Q522 396 514 395Q504 393 490 365T466 292T456 198Q456 175 464 167T488 159Q492 159 509 173Z" />
<glyph unicode="A" glyph-name="A" horiz-adv-x="624" d="M608 72L597 0H298L311 80L373 93L368 168H210L183 96L259 80L246 0H-53L-42 72L30 87L292 613L474 622L493 603L551 85L608 72ZM247 261H361L349 478H340L247 261Z" />
<glyph unicode="B" glyph-name="B" horiz-adv-x="569" d="M499 308T527 280T556 206Q556 146 529 99T452 26T333 0H-25L-14 73L48 86L123 528L66 541L77 613H421Q485 613 526 584T568 499Q568 431 540 390T453 324L452 317Q499 308 527 280ZM349 351T367 388T386
492Q386 516 378 529T354 542Q347 542 306 530L275 351H288Q349 351 367 388ZM331 79T350 122T369 216Q369 236 361 245T340 255T299 257H259L231 91Q281 79 293 79Q331 79 350 122Z" />
<glyph unicode="C" glyph-name="C" horiz-adv-x="498" d="M395 391L404 522Q367 529 346 529Q321 529 300 520Q281 512 262 448T229 306T216 189Q216 136 240 119T310 101H339L379 224H466L435 14Q411 7 320 -1T210 -9Q169 -9 127 10T55 74T25 189Q25 254 47 348T97
508Q153 545 240 585T354 625Q382 625 438 622T533 616L488 391H395Z" />
<glyph unicode="D" glyph-name="D" horiz-adv-x="608" d="M517 613T563 566T610 421Q610 319 580 222T490 63T347 0H-25L-14 72L48 86L124 528L66 541L77 613H448Q517 613 563 566ZM323 84T354 142T402 284T419 437Q419 494 406 515T363 536Q352 536 305 526L231
91Q271 84 282 84Q323 84 354 142Z" />
<glyph unicode="E" glyph-name="E" horiz-adv-x="527" d="M431 384L437 528L303 515L278 367L396 362L380 269L260 264L232 101L365 88L405 235H494L459 0H-25L-13 72L48 85L123 527L66 541L77 613H557L520 384H431Z" />
<glyph unicode="F" glyph-name="F" horiz-adv-x="501" d="M515 389H426L432 528L303 515L275 350L397 345L381 252L257 247L231 96L327 80L314 0H-25L-14 72L48 85L123 527L66 541L77 613H552L515 389Z" />
<glyph unicode="G" glyph-name="G" horiz-adv-x="568" d="M569 242L521 233L492 59Q436 37 351 14T240 -9Q198 -9 148 11T62 75T25 189Q25 254 47 348T97 508Q153 545 240 585T354 625Q387 625 458 622T566 616L521 391H428L436 514Q383 529 346 529Q321 529 300
520Q281 512 262 448T229 306T216 189Q216 140 232 119T279 98Q289 98 294 99L345 106L365 222L297 235L309 315H580L569 242Z" />
<glyph unicode="H" glyph-name="H" horiz-adv-x="657" d="M635 528L560 85L617 72L606 0H307L320 80L379 92L408 264H260L231 92L287 80L274 0H-25L-14 72L48 85L123 528L66 541L77 613H376L363 533L304 521L276 357H424L452 521L396 533L409 613H708L697 541L635 528Z" />
<glyph unicode="I" glyph-name="I" horiz-adv-x="330" d="M304 520L231 93L292 80L279 0H-25L-14 72L48 85L123 528L66 541L77 613H381L368 533L304 520Z" />
<glyph unicode="J" glyph-name="J" horiz-adv-x="319" d="M362 533L298 520L218 44Q213 13 176 -34T95 -117T34 -153Q11 -153 -43 -142T-137 -120L-119 -42H-80Q-11 -42 -1 -39Q21 -34 40 80L117 528L60 541L71 613H375L362 533Z" />
<glyph unicode="K" glyph-name="K" horiz-adv-x="613" d="M231 92L287 80L274 0H-25L-14 72L48 85L123 528L66 541L77 613H371L358 533L304 522L231 92ZM599 527L432 341Q512 157 539 101L598 72L587 0H376Q355 57 327 141T282 278L291 335L449 518L395 533L408
613H677L666 541L599 527Z" />
<glyph unicode="L" glyph-name="L" horiz-adv-x="511" d="M491 219L459 0H-25L-13 72L48 85L123 528L66 541L77 613H406L393 533L304 518L233 102L359 92L398 219H491Z" />
<glyph unicode="M" glyph-name="M" horiz-adv-x="841" d="M806 528L753 85L811 72L800 0H506L519 80L577 92L615 382H600Q592 357 568 309L441 44L324 26L285 38L248 268L243 299Q232 352 231 383H216L163 101L243 80L230 0H-39L-28 72L40 87L139 528L82 541L93
613H372L421 283H440L587 613H876L866 541L806 528Z" />
<glyph unicode="N" glyph-name="N" horiz-adv-x="651" d="M694 541L633 527L544 7L394 -7L367 11L311 155Q262 281 251 324H238L209 96L277 80L264 0H-25L-14 72L48 85L124 530L66 541L77 613H312L369 428L392 357Q413 297 423 262H435L475 518L406 533L419 613H705L694
541Z" />
<glyph unicode="O" glyph-name="O" horiz-adv-x="597" d="M153 -13T89 34T25 189Q25 254 47 348T97 508Q153 545 240 585T354 625Q475 625 538 578T602 423Q602 357 581 265T531 104Q495 77 442 50T340 5T274 -13Q153 -13 89 34ZM303 79T322 87T353 102Q374 153
392 255T411 417Q411 476 396 502T346 529Q321 529 300 520Q281 512 262 448T229 306T216 189Q216 128 232 104T299 79Q303 79 322 87Z" />
<glyph unicode="P" glyph-name="P" horiz-adv-x="541" d="M490 613T532 580T575 485Q575 412 547 348T466 243T344 203H250L231 96L327 80L314 0H-25L-14 72L48 85L123 528L66 541L77 613H426Q490 613 532 580ZM357 299T374 349T391 474Q391 510 382 524T352 538Q347
538 305 527L266 299H299Q357 299 374 349Z" />
<glyph unicode="Q" glyph-name="Q" horiz-adv-x="597" d="M497 79T447 53T351 9L532 -40L463 -167H394L184 -5Q107 10 66 56T25 189Q25 254 47 348T97 508Q153 545 240 585T354 625Q475 625 538 578T602 423Q602 357 581 265T531 104Q497 79 447 53ZM281 512T262
448T229 306T216 189Q216 128 232 104T299 79Q303 79 322 87T353 102Q374 153 392 255T411 417Q411 476 396 502T346 529Q321 529 300 520Q281 512 262 448Z" />
<glyph unicode="R" glyph-name="R" horiz-adv-x="567" d="M483 184T519 100L576 72L566 0H345L296 240H256L231 92L287 80L274 0H-25L-14 72L48 85L123 528L66 541L77 613H435Q500 613 539 585T578 497Q578 428 546 366T459 269L458 259Q483 184 519 100ZM273
337H302Q354 337 374 374T394 475Q394 509 385 523T355 538Q347 538 305 527L273 337Z" />
<glyph unicode="S" glyph-name="S" horiz-adv-x="470" d="M365 391L374 516Q296 528 265 528Q251 528 245 519T239 487Q239 460 256 437T307 383L342 353Q397 307 426 271T455 187Q455 170 451 148T440 113Q424 89 382 60T295 11T232 -9Q104 -9 -10 1L37 242H130L120
100Q186 92 236 92Q249 92 260 108T271 138Q271 169 250 194T183 255Q141 289 119 310T79 360T62 426Q62 458 78 504Q92 525 137 554T229 604T294 626Q309 626 379 621T503 610L458 391H365Z" />
<glyph unicode="T" glyph-name="T" horiz-adv-x="573" d="M583 372H490L502 512L433 526L359 94L435 80L422 0H83L94 72L176 87L251 527L177 514L149 372H56L81 613H626L583 372Z" />
<glyph unicode="U" glyph-name="U" horiz-adv-x="640" d="M609 528L533 85L600 67L589 0H390L361 81Q218 -12 204 -12Q129 -12 87 20T44 113Q44 136 54 198T88 398Q101 476 110 528L52 541L63 613H357L344 533L290 522L265 379Q252 304 245 257T237 196Q237 165
247 154T275 142Q294 142 366 170L425 521L374 533L387 613H681L670 541L609 528Z" />
<glyph unicode="V" glyph-name="V" horiz-adv-x="572" d="M612 548L356 0L174 -9L155 10L111 529L56 541L67 613H354L341 533L287 521L299 281L300 141H311L447 518L387 533L400 613H599L612 548Z" />
<glyph unicode="W" glyph-name="W" horiz-adv-x="883" d="M923 548L662 0L480 -9L461 10L450 207H440L349 0L167 -9L148 10L110 529L56 541L67 613H350L337 533L287 522L299 281L293 141H304L435 484L433 528L381 541L392 613H667L654 533L602 521L608 281L606
141H617L757 518L696 533L709 613H910L923 548Z" />
<glyph unicode="X" glyph-name="X" horiz-adv-x="615" d="M435 324L553 84L610 72L599 0H280L293 80L352 91L288 249L185 95L250 80L237 0H-52L-41 72L17 84L215 325L113 527L54 541L65 613H364L351 533L308 525L363 391L443 519L379 533L392 613H691L680 541L605
525L435 324Z" />
<glyph unicode="Y" glyph-name="Y" horiz-adv-x="551" d="M359 94L434 80L421 0H82L93 72L175 87L201 243L110 523L36 541L47 613H346L333 533L290 525L327 350H337L431 521L375 533L388 613H575L589 548L387 251L359 94Z" />
<glyph unicode="Z" glyph-name="Z" horiz-adv-x="520" d="M224 105L383 91L420 243H508L478 0H-15L-3 80L320 511L169 523L138 373H45L72 613H567L552 545L224 105Z" />
<glyph unicode="[" glyph-name="bracketleft" horiz-adv-x="337" d="M151 685H378L366 610L289 599L183 -21L256 -33L242 -117H14L151 685Z" />
<glyph unicode="\" glyph-name="backslash" horiz-adv-x="369" d="M103 687H226L284 -118H161L103 687Z" />
<glyph unicode="]" glyph-name="bracketright" horiz-adv-x="337" d="M2 -42L79 -31L185 589L112 601L126 685H354L217 -117H-10L2 -42Z" />
<glyph unicode="^" glyph-name="asciicircum" horiz-adv-x="561" d="M398 242L321 472L163 228L67 286L277 603H408L510 274L398 242Z" />
<glyph unicode="_" glyph-name="underscore" horiz-adv-x="397" d="M-41 -56H338L314 -176H-64L-41 -56Z" />
<glyph unicode="`" glyph-name="grave" horiz-adv-x="240" d="M69 623L83 678L158 732L301 578L252 520L69 623Z" />
<glyph unicode="a" glyph-name="a" horiz-adv-x="504" d="M422 95L468 84L456 15Q424 8 368 0T292 -9Q285 -9 271 10T258 40L271 152H261Q258 147 254 140T245 124Q236 109 202 51T165 -8Q83 -8 48 30T12 141Q12 197 31 270T72 380Q106 405 188 441T293 477Q305
477 382 465T485 448L422 95ZM226 156T280 212L308 383Q252 399 243 396Q234 394 221 366T197 292T187 198Q187 174 194 165T219 156Q226 156 280 212Z" />
<glyph unicode="b" glyph-name="b" horiz-adv-x="498" d="M416 477T451 439T487 328Q487 272 468 199T427 89Q393 64 311 28T206 -8Q194 -8 122 3T19 20H14V21V21L110 561L64 572L76 641Q108 648 165 656T242 665Q249 665 262 644T274 615L230 317H238Q241 322
245 329T254 345Q263 360 297 418T334 477Q416 477 451 439ZM265 75T278 103T302 177T312 271Q312 296 306 304T281 313Q274 313 221 258L192 86Q243 71 256 73Q265 75 278 103Z" />
<glyph unicode="c" glyph-name="c" horiz-adv-x="409" d="M222 387T207 316T191 165Q191 125 203 108T252 91H353L340 21Q297 11 246 1T184 -9Q106 -9 60 32T13 146Q13 196 32 270T72 380Q108 405 192 441T299 477Q323 477 357 474T424 468L384 286H312L303 375Q270
396 253 396Q250 396 244 394Q222 387 207 316Z" />
<glyph unicode="d" glyph-name="d" horiz-adv-x="493" d="M486 665T500 644T514 615L422 95L463 84L451 15Q416 8 364 0T292 -9Q285 -9 271 10T258 40L272 152H261Q258 147 254 140T245 124Q236 109 202 51T165 -8Q83 -8 48 30T12 141Q12 197 31 270T72 380Q106
405 188 441T293 477L324 474L338 561L297 572L309 641Q340 647 399 656T479 665Q486 665 500 644ZM226 156T281 213L309 383Q253 399 243 396Q234 394 221 366T197 292T187 198Q187 174 194 165T219 156Q226 156 281 213Z" />
<glyph unicode="e" glyph-name="e" horiz-adv-x="429" d="M443 324T408 282T314 216T190 191V168Q190 125 202 108T243 91Q259 91 282 96T323 107T347 114L370 121L387 47Q339 28 277 10T198 -9Q111 -9 62 30T12 146Q12 196 31 270T71 380Q107 405 191 441T299
477Q361 477 402 455T443 381Q443 324 408 282ZM227 389T214 348T194 248Q235 255 260 282T285 355Q285 396 256 396Q249 396 243 394Q227 389 214 348Z" />
<glyph unicode="f" glyph-name="f" horiz-adv-x="318" d="M284 569T279 557T269 520L259 464L365 462L349 375H243L194 95L255 80L242 7Q62 -9 53 -9Q46 -9 32 10T18 40L77 376H12L24 448L93 467L100 507Q103 527 141 565T222 634T287 665Q308 665 355 663T418
659Q423 652 433 631T444 604Q444 595 429 569T398 520L378 530Q302 569 294 569Q284 569 279 557Z" />
<glyph unicode="g" glyph-name="g" horiz-adv-x="501" d="M303 477T380 465T483 448L402 -16Q397 -44 356 -84T267 -155T201 -186Q185 -186 108 -173T-24 -149L-4 -36L104 24Q59 39 38 77T17 170Q17 217 30 272T69 380Q103 405 185 441T291 477Q303 477 380 465ZM230
392T219 368T199 306T191 230Q191 192 198 170T227 142L283 202Q293 271 312 381Q249 399 241 396Q230 392 219 368ZM228 -103T233 -83T249 0L268 110H253Q180 11 140 -46L138 -64Q157 -77 185 -90T220 -103Q228 -103 233 -83Z" />
<glyph unicode="h" glyph-name="h" horiz-adv-x="507" d="M482 348T475 308L434 91L474 80L463 12Q441 8 380 1T294 -9Q287 -9 272 10T259 40L296 246Q300 274 300 281Q300 296 296 302T279 308Q277 308 220 251L196 106Q195 101 195 94Q195 74 212 65L206 6L52
-9Q45 -9 31 10T17 40L110 561L64 572L76 641Q108 648 164 656T241 665Q248 665 262 644T276 615L230 310H236L253 341Q329 476 333 476Q412 476 447 451T482 369Q482 348 475 308Z" />
<glyph unicode="i" glyph-name="i" horiz-adv-x="272" d="M49 -9T34 10T21 40L81 373L35 384L47 453Q76 459 139 468T222 477Q229 477 243 456T257 427L197 95L243 84L231 15Q202 9 139 0T56 -9Q49 -9 34 10ZM125 664L269 671L289 641L261 537H115L125 664Z" />
<glyph unicode="j" glyph-name="j" horiz-adv-x="270" d="M-29 -186T-62 -175T-126 -150L-112 -73H-81Q-18 -73 -5 -68Q3 -65 8 -45T24 35L81 373L35 384L47 453Q76 459 139 468T222 477Q229 477 243 456T257 427L181 -16Q176 -44 137 -84T53 -155T-10 -186Q-29
-186 -62 -175ZM124 664L268 671L288 641L260 537H114L124 664Z" />
<glyph unicode="k" glyph-name="k" horiz-adv-x="483" d="M391 171T405 140T429 93L469 80L461 22Q318 -9 311 -9Q293 -9 268 42T225 160L233 212Q275 223 293 246T312 294Q312 319 288 319Q285 319 221 253L196 106Q195 101 195 94Q195 74 212 65L206 6L52 -9Q45
-9 31 10T17 40L110 561L64 572L76 641Q108 648 164 656T241 665Q248 665 262 644T276 615L230 310H237L254 341Q330 476 334 476Q410 476 445 450T481 365Q481 304 455 267T381 198Q391 171 405 140Z" />
<glyph unicode="l" glyph-name="l" horiz-adv-x="270" d="M46 -9T32 10T18 40L110 561L64 572L76 641Q105 647 168 656T251 665Q258 665 272 644T286 615L194 95L240 84L228 15Q199 9 136 0T53 -9Q46 -9 32 10Z" />
<glyph unicode="m" glyph-name="m" horiz-adv-x="744" d="M719 348T712 308L671 91L711 80L700 12Q538 -9 531 -9Q524 -9 509 10T496 40L533 246Q537 272 537 281Q537 296 533 302T516 308Q514 308 461 252Q436 102 436 94Q436 74 453 65L447 6L293 -9Q286 -9
271 10T258 40L295 246Q299 272 299 281Q299 296 295 302T278 308Q276 308 223 252L200 106Q199 101 199 94Q199 74 216 65L210 6L56 -9Q49 -9 34 10T21 40L81 373L35 384L47 453Q78 459 136 468T214 477Q221 477 234 456T246 427L232 310H240L259 346Q271 369
300 422T332 476Q411 476 444 452T478 369Q478 349 471 310H478L497 346Q509 369 538 422T570 476Q649 476 684 452T719 369Q719 348 712 308Z" />
<glyph unicode="n" glyph-name="n" horiz-adv-x="511" d="M486 348T479 308L438 91L478 80L467 12Q305 -9 298 -9Q291 -9 276 10T263 40L300 246Q304 274 304 283Q304 308 283 308Q281 308 223 250L200 106Q199 102 199 95Q199 74 216 65L210 6L56 -9Q49 -9 34
10T21 40L81 373L35 384L47 453Q78 459 136 468T214 477Q221 477 234 456T246 427L232 310H240L256 339Q284 390 309 433T337 476Q416 476 451 451T486 369Q486 348 479 308Z" />
<glyph unicode="o" glyph-name="o" horiz-adv-x="488" d="M112 -9T63 30T13 146Q13 198 31 271T72 380Q133 418 203 449T299 481Q386 481 431 440T477 322Q477 269 459 202T418 97Q391 75 344 51T255 9T199 -9Q112 -9 63 30ZM225 68T234 71Q254 78 260 82Q273
116 286 192T299 322Q299 358 290 379T261 400Q252 400 244 397Q231 392 219 357T199 269T191 165Q191 115 198 92T222 68Q225 68 234 71Z" />
<glyph unicode="p" glyph-name="p" horiz-adv-x="499" d="M417 477T452 439T488 328Q488 272 469 199T428 89Q394 64 312 28T207 -8L175 -5L162 -82L203 -93L191 -162Q160 -168 101 -177T21 -186Q14 -186 0 -167T-14 -137L76 373L35 384L47 453Q80 460 135 468T209
477Q216 477 230 456T244 427L229 317H239Q242 322 246 329T255 345Q264 360 298 418T335 477Q417 477 452 439ZM266 75T279 103T303 177T313 271Q313 296 307 304T282 313Q277 313 219 255L191 86Q246 70 257 73Q266 75 279 103Z" />
<glyph unicode="q" glyph-name="q" horiz-adv-x="501" d="M391 -82L437 -93L425 -162Q394 -168 339 -176T264 -185Q257 -185 243 -166T229 -136L270 152H261Q258 147 254 140T245 124Q236 109 202 51T165 -8Q83 -8 48 30T12 141Q12 197 31 270T72 380Q106 405
188 441T293 477Q305 477 382 465T485 448L391 -82ZM226 156T279 211L307 383Q253 399 243 396Q234 394 221 366T197 292T187 198Q187 174 194 165T219 156Q226 156 279 211Z" />
<glyph unicode="r" glyph-name="r" horiz-adv-x="406" d="M348 481T384 472T440 453L399 236H340L332 317Q313 328 306 328Q304 328 223 251L200 106Q199 101 199 94Q199 81 204 75T221 65L215 6L56 -9Q49 -9 34 10T21 40L81 373L35 384L47 453Q78 459 136 468T214
477Q221 477 234 456T246 427L231 311H240L277 382Q287 401 308 441T332 481Q348 481 384 472Z" />
<glyph unicode="s" glyph-name="s" horiz-adv-x="422" d="M325 264T346 248T383 205T399 145Q399 132 396 113T386 80Q360 51 309 21T238 -9Q144 -9 -3 5L31 184H101L112 96Q179 73 202 73Q210 73 217 82T224 104Q224 132 158 174Q123 196 101 213T63 255T47 313Q47
330 52 353T64 388Q95 415 146 446T212 477Q286 477 424 463L392 300H322L310 372Q234 393 216 393Q212 393 205 386T198 370Q198 354 214 340T265 304L285 291Q325 264 346 248Z" />
<glyph unicode="t" glyph-name="t" horiz-adv-x="332" d="M86 -9T71 9T43 49T33 85Q41 142 79 376H7L19 442L99 473L224 602Q241 602 282 587L263 462H359L344 376H246L228 262Q206 128 206 117Q206 105 209 100T221 94Q227 93 299 93L290 16Q244 9 177 0T94 -9Q86
-9 71 9Z" />
<glyph unicode="u" glyph-name="u" horiz-adv-x="509" d="M461 477T476 458T489 428L429 95L475 84L463 15Q430 8 375 0T300 -9Q293 -9 279 12T265 41L278 152H266Q247 120 244 115Q174 -8 170 -8Q96 -8 62 17T27 97Q27 125 32 150L74 377L34 388L45 456Q86 462
138 468T214 477Q221 477 236 458T249 428L210 211Q205 184 205 173Q205 163 209 160T225 156Q227 156 246 173T286 210L310 362Q311 367 311 374Q311 395 294 403L300 462L454 477Q461 477 476 458Z" />
<glyph unicode="v" glyph-name="v" horiz-adv-x="471" d="M106 -4L65 366L11 380L20 449Q50 455 110 464T194 476Q198 476 216 457T235 430L237 221L228 115H240Q258 160 279 231T315 371L266 391L279 464Q314 469 369 472T446 477Q451 477 469 457T487 430Q470
348 407 211T285 -9L106 -4Z" />
<glyph unicode="w" glyph-name="w" horiz-adv-x="703" d="M691 477T709 457T727 430Q713 361 665 247T563 43L531 -9L346 -4L332 121H318L289 28L261 -9L83 -4L64 366L26 380L35 449Q78 457 125 465T193 476Q197 476 216 457T234 430L217 221L209 120H221Q242
160 282 242L312 302L305 366L251 380L260 449Q290 455 350 464T434 476Q438 476 456 457T475 430L477 221L468 115H480Q498 160 519 231T555 371L506 391L519 464Q554 469 609 472T686 477Q691 477 709 457Z" />
<glyph unicode="x" glyph-name="x" horiz-adv-x="470" d="M470 477T480 446T489 403L330 230L382 102L432 87L423 18Q394 10 337 1T270 -9Q265 -9 250 8T229 37L182 158L136 86L171 77L158 1Q141 -3 86 -5T9 -9Q1 -9 -10 23T-18 65L137 236L82 365L34 380L43 449Q77
456 133 466T195 476Q200 476 215 459T236 430L282 311L335 382L295 391L308 467Q339 471 386 474T462 477Q470 477 480 446Z" />
<glyph unicode="y" glyph-name="y" horiz-adv-x="479" d="M478 477T496 457T514 430L289 -9L249 -166Q223 -175 191 -181T143 -188Q131 -188 113 -172T85 -141L183 5L93 14L67 366L18 380L27 449Q54 455 113 464T196 476Q200 476 218 457T237 430L233 221L220
127H236L338 371L288 391L301 464Q325 468 387 472T473 477Q478 477 496 457Z" />
<glyph unicode="z" glyph-name="z" horiz-adv-x="451" d="M355 195L434 194L403 0H24Q17 17 12 38T6 76L77 162Q181 289 228 351V365L137 356L114 288H41L62 463H433Q438 454 443 432T450 388Q427 360 366 290L218 113L217 95L325 105L355 195Z" />
<glyph unicode="{" glyph-name="braceleft" horiz-adv-x="385" d="M113 172L52 240L70 354L154 420L200 680H425L414 605L337 595L298 354L208 299L276 238L234 -16L307 -27L292 -112H67L113 172Z" />
<glyph unicode="|" glyph-name="bar" horiz-adv-x="277" d="M153 680H275L130 -181H8L153 680Z" />
<glyph unicode="}" glyph-name="braceright" horiz-adv-x="386" d="M3 -37L80 -27L119 214L209 269L141 330L183 584L110 595L125 680H350L304 396L365 328L347 214L263 148L217 -112H-8L3 -37Z" />
<glyph unicode="~" glyph-name="asciitilde" horiz-adv-x="642" d="M393 246T365 251T289 269Q242 283 223 283Q208 283 192 276T162 260T144 249L105 311Q143 348 187 381T251 414Q287 414 373 390Q439 373 458 373Q476 373 491 382T531 410L570 347Q538 314
491 280T424 246Q393 246 365 251Z" />
<glyph unicode="&#xa0;" glyph-name="uni00A0" horiz-adv-x="134" />
<glyph unicode="&#xa1;" glyph-name="exclamdown" horiz-adv-x="357" d="M147 461Q225 471 279 471Q286 471 298 457T308 436L280 334H134L147 461ZM51 -196T40 -184T29 -166L134 258Q217 271 232 271Q237 271 246 264T255 252L208 -172Q76 -196 56 -196Q51 -196
40 -184Z" />
<glyph unicode="&#xa2;" glyph-name="cent" horiz-adv-x="448" d="M248 425T233 354T217 205Q217 165 229 148T278 131H379L366 61Q323 50 263 39L244 -62H138L156 37Q101 50 70 88T39 186Q39 236 58 310T98 420Q117 434 155 452T234 488L254 602H361L346 516Q389
515 450 508L410 326H338L329 415Q296 436 279 436Q276 436 270 434Q248 425 233 354Z" />
<glyph unicode="&#xa3;" glyph-name="sterling" horiz-adv-x="600" d="M457 348L469 447Q370 468 360 468Q345 468 337 455T322 413T306 325H417L401 233H291Q279 185 264 158T225 105Q252 103 282 99Q375 89 403 87L438 205H525L499 0H177Q125 0 15 -15L11 69Q46
78 63 93T89 137T111 233H45L59 325H127Q146 421 175 473T248 546T365 567Q405 567 452 562T592 545L543 348H457Z" />
<glyph unicode="&#xa4;" glyph-name="currency" horiz-adv-x="631" d="M588 440T588 394Q588 345 572 299T526 214L580 147L509 79L456 146Q382 96 299 96Q256 96 220 109T157 146L82 81L34 148L110 214Q95 252 95 296Q95 346 111 393T156 480L98 551L170 618L225
549Q298 600 384 600Q469 600 524 551L599 616L647 548L572 482Q588 440 588 394ZM237 278T258 254T321 229Q379 229 413 272T447 377Q447 417 426 442T362 467Q302 467 270 425T237 318Q237 278 258 254Z" />
<glyph unicode="&#xa5;" glyph-name="yen" horiz-adv-x="625" d="M569 457L492 345H547L533 258H431L413 232L411 222H529L515 135H397L390 94L465 80L452 0H113L124 72L205 87L213 135H93L107 222H227L215 258H111L125 345H185L149 454L65 475L76 547H367L354
467L326 462L355 335H367L434 453L378 467L392 547H661L647 475L569 457Z" />
<glyph unicode="&#xa6;" glyph-name="brokenbar" horiz-adv-x="277" d="M153 680H275L212 307H90L153 680ZM70 185H192L130 -181H8L70 185Z" />
<glyph unicode="&#xa7;" glyph-name="section" horiz-adv-x="587" d="M326 491T346 470T411 415Q462 377 489 347T517 282Q517 266 511 245T497 209Q481 185 408 129Q439 93 439 58Q439 39 433 16T419 -21Q406 -39 375 -58T310 -91T261 -104Q215 -104 145 -101T38
-95L80 77H155L149 -9Q170 -13 189 -16T226 -20Q232 -20 240 -9T248 14Q248 44 230 65T176 114Q136 145 116 170T95 235Q95 250 100 269T113 305Q148 340 207 375Q178 411 178 453Q178 490 194 522Q206 539 244 564T322 608T377 627Q404 626 455 622T552 614L515
446H441L443 526Q375 548 359 548Q352 548 339 536T326 514Q326 491 346 470ZM269 259T284 241T329 198Q339 215 339 234Q339 258 324 276T280 315Q269 300 269 278Q269 259 284 241Z" />
<glyph unicode="&#xa8;" glyph-name="dieresis" horiz-adv-x="380" d="M76 664L220 671L240 641L212 537H66L76 664ZM288 664L432 671L452 641L424 537H278L288 664Z" />
<glyph unicode="&#xa9;" glyph-name="copyright" horiz-adv-x="843" d="M309 49T240 87T132 196T94 362Q94 489 148 592T301 754T524 813Q617 813 686 775T793 666T831 500Q831 373 777 270T625 108T402 49Q309 49 240 87ZM566 151T642 243T718 492Q718 598 668
654T509 711Q410 711 342 668T241 548T207 370Q207 264 257 208T416 151Q566 151 642 243ZM366 256T339 288T312 383Q312 457 349 541Q369 563 421 592T490 622Q511 621 545 619T608 613L577 470H528L533 548Q528 549 506 554T472 560Q458 560 446 529T425 456T417
385Q417 355 422 341T436 323T464 318L542 328V276Q503 268 464 262T413 256Q366 256 339 288Z" />
<glyph unicode="&#xaa;" glyph-name="ordfeminine" horiz-adv-x="464" d="M454 399L488 390L479 339Q460 334 409 328T341 321Q336 321 325 335T315 357L326 424Q302 386 275 354T242 321Q120 321 120 433Q120 473 135 528T165 612Q190 631 252 658T331 685Q342
685 413 676T501 663L454 399ZM285 441T303 456T338 490L358 607Q324 616 310 616Q301 614 290 596T271 546T262 471Q262 453 267 447T282 441Q285 441 303 456Z" />
<glyph unicode="&#xab;" glyph-name="guillemotleft" horiz-adv-x="558" d="M38 188L51 285L238 436L295 390L205 244L203 230L249 67L180 24L38 188ZM271 188L284 285L471 436L528 390L438 244L436 230L482 67L413 24L271 188Z" />
<glyph unicode="&#xac;" glyph-name="logicalnot" horiz-adv-x="460" d="M432 118H309L328 226H18L39 344H472L432 118Z" />
<glyph unicode="&#xad;" glyph-name="uni00AD" horiz-adv-x="345" d="M61 302H310L288 186H40L61 302Z" />
<glyph unicode="&#xae;" glyph-name="registered" horiz-adv-x="698" d="M223 213T163 274T103 438Q103 544 146 629T269 764T453 813Q575 813 635 752T695 588Q695 482 652 397T529 262T345 213Q223 213 163 274ZM432 302T486 337T569 432T599 563Q599 635 559
679T436 724Q365 724 312 689T230 594T201 461Q201 389 240 346T362 302Q432 302 486 337ZM260 411L286 414L322 620L298 626L303 657H450Q487 657 505 643T523 599Q523 565 507 538T467 496L466 488L493 421L517 412L514 381H427L395 485H373L361 415L382 412L378
381H255L260 411ZM398 529Q421 529 433 546T445 596Q445 608 441 614T425 620L397 618L381 529H398Z" />
<glyph unicode="&#xaf;" glyph-name="overscore" horiz-adv-x="314" d="M74 652H388L370 547H56L74 652Z" />
<glyph unicode="&#xb0;" glyph-name="degree" horiz-adv-x="322" d="M133 361T104 394T74 475Q74 513 92 548T146 607T228 630Q284 630 313 597T343 516Q343 478 325 442T271 384T189 361Q133 361 104 394ZM224 448T238 465T252 503Q252 520 243 531T216 543Q193
543 179 526T165 487Q165 471 174 460T201 448Q224 448 238 465Z" />
<glyph unicode="&#xb1;" glyph-name="plusminus" horiz-adv-x="600" d="M526 390L503 280H367L340 129H222L249 280H111L134 390H268L295 540H413L386 390H526ZM80 83H472L449 -27H57L80 83Z" />
<glyph unicode="&#xb2;" glyph-name="uni00B2" horiz-adv-x="461" d="M456 499L434 363H89L88 418L228 574Q241 589 246 600T252 625Q252 636 240 636Q235 636 195 617L180 552H113L128 696Q250 716 313 716Q438 716 438 637Q438 592 405 553L321 453L320 443H375L392
499H456Z" />
<glyph unicode="&#xb3;" glyph-name="uni00B3" horiz-adv-x="459" d="M420 546T434 530T449 491Q449 460 424 429T354 377T256 356Q229 357 178 361T98 369L110 435L169 434L218 435Q236 438 246 452T257 482Q257 502 244 502H187L196 563Q220 565 239 577T269
607T280 637Q280 652 270 652Q265 652 207 630L194 583H127L142 705Q246 717 311 717Q379 717 417 700T456 642Q456 616 440 597T391 561V553Q420 546 434 530Z" />
<glyph unicode="&#xb4;" glyph-name="acute" horiz-adv-x="231" d="M61 578L233 732L305 653L286 599L97 520L61 578Z" />
<glyph unicode="&#xb5;" glyph-name="uni00B5" horiz-adv-x="538" d="M482 477T496 458T510 430L490 315Q478 242 469 187T460 116Q460 90 468 82T500 72V15Q411 -8 399 -8Q377 -8 348 6T301 44Q209 -8 199 -8Q183 -8 176 -7Q169 -51 169 -67Q169 -104 175 -120T197
-142T247 -149L251 -211Q162 -240 146 -240Q132 -240 100 -214T43 -151T18 -86Q18 -61 49 125L50 131L95 377L55 388L66 456Q96 461 153 468T235 477Q242 477 256 459T270 430L261 379Q242 271 231 206T220 125Q220 84 256 84Q270 84 286 90Q287 123 324 318L335
377L295 388L306 456Q330 460 390 467T475 477Q482 477 496 458Z" />
<glyph unicode="&#xb6;" glyph-name="paragraph" horiz-adv-x="670" d="M710 527L646 511L578 102Q573 71 536 24T455 -59T394 -95Q371 -95 317 -84T223 -62L241 16Q350 16 359 19Q381 24 400 138L465 514L429 515L369 161L265 162Q193 163 151 211T109 353Q109
427 133 486T207 579T325 613H723L710 527Z" />
<glyph unicode="&#xb7;" glyph-name="middot" horiz-adv-x="283" d="M108 298T94 317T80 347L89 434Q116 440 161 445T227 451Q234 451 249 430T262 401L240 313Q122 298 115 298Q108 298 94 317Z" />
<glyph unicode="&#xb8;" glyph-name="cedilla" horiz-adv-x="212" d="M-71 -171L-48 -161Q-13 -146 2 -138T17 -124Q17 -113 -33 -96L-37 -52L-1 11L79 8L71 -37Q150 -72 150 -117Q150 -129 145 -147T132 -176Q116 -188 63 -207T-46 -241L-71 -171Z" />
<glyph unicode="&#xb9;" glyph-name="uni00B9" horiz-adv-x="433" d="M423 427L411 363H90L102 429L187 441L216 608L128 603L138 677L326 721L396 683L355 436L423 427Z" />
<glyph unicode="&#xba;" glyph-name="ordmasculine" horiz-adv-x="442" d="M196 317T160 353T123 452Q123 522 167 610Q211 638 268 662T346 686Q419 686 453 653T487 560Q487 489 444 397Q424 381 387 362T315 330T271 317Q196 317 160 353ZM296 375T300 377Q313
382 317 385Q325 406 333 465T341 566Q341 596 336 610T315 624Q311 624 308 623Q294 616 282 562T270 448Q270 375 293 375Q296 375 300 377Z" />
<glyph unicode="&#xbb;" glyph-name="guillemotright" horiz-adv-x="578" d="M42 70L132 229L134 243L88 393L157 436L299 285L284 188L99 24L42 70ZM281 70L371 229L373 243L327 393L396 436L538 285L523 188L338 24L281 70Z" />
<glyph unicode="&#xbc;" glyph-name="onequarter" horiz-adv-x="1061" d="M663 593L651 529H330L342 595L427 607L456 774L368 769L378 843L566 887L636 849L595 602L663 593ZM973 72H915L902 0H757L770 72H581V152L729 344H962L930 159H988L973 72ZM785 159L801
255H795L729 165V159H785ZM670 629H803L401 -14H267L670 629Z" />
<glyph unicode="&#xbd;" glyph-name="onehalf" horiz-adv-x="1048" d="M663 593L651 529H330L342 595L427 607L456 774L368 769L378 843L566 887L636 849L595 602L663 593ZM979 136L957 0H612L611 55L751 211Q764 226 769 237T775 262Q775 273 763 273Q758 273
718 254L703 189H636L651 333Q773 353 836 353Q961 353 961 274Q961 229 928 190L844 90L843 80H898L915 136H979ZM668 629H801L399 -14H265L668 629Z" />
<glyph unicode="&#xbe;" glyph-name="threequarters" horiz-adv-x="1033" d="M660 712T674 696T689 657Q689 626 664 595T594 543T496 522Q469 523 418 527T338 535L350 601L409 600L458 601Q476 604 486 618T497 648Q497 668 484 668H427L436 729Q460 731 479
743T509 773T520 803Q520 818 510 818Q505 818 447 796L434 749H367L382 871Q486 883 551 883Q619 883 657 866T696 808Q696 782 680 763T631 727V719Q660 712 674 696ZM945 72H887L874 0H729L742 72H553V152L701 344H934L902 159H960L945 72ZM757 159L773 255H767L701
165V159H757ZM644 629H777L375 -14H241L644 629Z" />
<glyph unicode="&#xbf;" glyph-name="questiondown" horiz-adv-x="494" d="M404 465T417 449T429 426L399 325L259 334L266 458Q332 465 396 465Q404 465 417 449ZM315 20H403L375 -171Q232 -206 150 -206Q-8 -206 -8 -91Q-8 -45 11 -10T58 52T138 117L166 138Q207
169 227 195T258 268Q339 281 355 281Q360 281 369 274T378 262L365 174Q359 132 332 100T260 34Q198 -11 178 -37T158 -93Q158 -116 173 -116Q180 -116 238 -101L273 -91L315 20Z" />
<glyph unicode="&#xc0;" glyph-name="Agrave" horiz-adv-x="624" d="M608 72L597 0H298L311 80L373 93L368 168H210L183 96L259 80L246 0H-53L-42 72L30 87L292 613L474 622L493 603L551 85L608 72ZM247 261H361L349 478H340L247 261ZM283 691L271 742L343 841L508
726L472 657L283 691Z" />
<glyph unicode="&#xc1;" glyph-name="Aacute" horiz-adv-x="624" d="M608 72L597 0H298L311 80L373 93L368 168H210L183 96L259 80L246 0H-53L-42 72L30 87L292 613L474 622L493 603L551 85L608 72ZM247 261H361L349 478H340L247 261ZM283 726L484 836L536 742L506
691L295 657L283 726Z" />
<glyph unicode="&#xc2;" glyph-name="Acircumflex" horiz-adv-x="624" d="M608 72L597 0H298L311 80L373 93L368 168H210L183 96L259 80L246 0H-53L-42 72L30 87L292 613L474 622L493 603L551 85L608 72ZM247 261H361L349 478H340L247 261ZM230 716L367 841H471L566
707L495 659L400 715H393L279 659L230 716Z" />
<glyph unicode="&#xc3;" glyph-name="Atilde" horiz-adv-x="624" d="M608 72L597 0H298L311 80L373 93L368 168H210L183 96L259 80L246 0H-53L-42 72L30 87L292 613L474 622L493 603L551 85L608 72ZM247 261H361L349 478H340L247 261ZM439 664T419 671T376 692Q350
705 343 705Q337 705 316 694T284 674L238 731Q262 757 301 791T357 826Q372 826 391 819T436 798Q441 796 456 789T478 781Q485 781 502 792T531 815L579 756Q560 734 518 699T459 664Q439 664 419 671Z" />
<glyph unicode="&#xc4;" glyph-name="Adieresis" horiz-adv-x="624" d="M608 72L597 0H298L311 80L373 93L368 168H210L183 96L259 80L246 0H-53L-42 72L30 87L292 613L474 622L493 603L551 85L608 72ZM247 261H361L349 478H340L247 261ZM227 787L371 794L391
764L363 660H217L227 787ZM439 787L583 794L603 764L575 660H429L439 787Z" />
<glyph unicode="&#xc5;" glyph-name="Aring" horiz-adv-x="624" d="M608 72L597 0H298L311 80L373 93L368 168H210L183 96L259 80L246 0H-53L-42 72L30 87L292 613L474 622L493 603L551 85L608 72ZM247 261H361L349 478H340L247 261ZM348 656T325 675T301 738Q301
804 336 844T435 885Q531 885 531 800Q531 736 494 696T394 656Q348 656 325 675ZM419 737T431 743Q439 767 439 784Q439 796 435 800T421 804Q413 804 401 798Q398 792 395 778T392 755Q392 745 396 741T409 737Q419 737 431 743Z" />
<glyph unicode="&#xc6;" glyph-name="AE" horiz-adv-x="772" d="M676 384L682 529L538 521L512 367L640 362L624 269L494 264L466 101L610 88L650 235H739L704 0H209L221 72L282 85L296 168H151L106 94L169 80L156 0H-143L-132 72L-48 90L245 518L150 541L161
613H802L765 384H676ZM312 261L353 502L207 261H312Z" />
<glyph unicode="&#xc7;" glyph-name="Ccedilla" horiz-adv-x="498" d="M395 391L404 522Q367 529 346 529Q321 529 300 520Q281 512 262 448T229 306T216 189Q216 136 240 119T310 101H339L379 224H466L435 14Q401 6 301 -2L295 -37Q374 -72 374 -117Q374 -129
369 -147T356 -176Q340 -188 287 -207T178 -241L153 -171L176 -161Q211 -146 226 -138T241 -124Q241 -113 191 -96L187 -52L212 -9H210Q169 -9 127 10T55 74T25 189Q25 254 47 348T97 508Q153 545 240 585T354 625Q382 625 438 622T533 616L488 391H395Z" />
<glyph unicode="&#xc8;" glyph-name="Egrave" horiz-adv-x="527" d="M431 384L437 528L303 515L278 367L396 362L380 269L260 264L232 101L365 88L405 235H494L459 0H-25L-13 72L48 85L123 527L66 541L77 613H557L520 384H431ZM219 691L207 742L279 841L444 726L408
657L219 691Z" />
<glyph unicode="&#xc9;" glyph-name="Eacute" horiz-adv-x="527" d="M431 384L437 528L303 515L278 367L396 362L380 269L260 264L232 101L365 88L405 235H494L459 0H-25L-13 72L48 85L123 527L66 541L77 613H557L520 384H431ZM210 726L411 836L463 742L433 691L222
657L210 726Z" />
<glyph unicode="&#xca;" glyph-name="Ecircumflex" horiz-adv-x="527" d="M431 384L437 528L303 515L278 367L396 362L380 269L260 264L232 101L365 88L405 235H494L459 0H-25L-13 72L48 85L123 527L66 541L77 613H557L520 384H431ZM166 716L303 841H407L502 707L431
659L336 715H329L215 659L166 716Z" />
<glyph unicode="&#xcb;" glyph-name="Edieresis" horiz-adv-x="527" d="M431 384L437 528L303 515L278 367L396 362L380 269L260 264L232 101L365 88L405 235H494L459 0H-25L-13 72L48 85L123 527L66 541L77 613H557L520 384H431ZM163 787L307 794L327 764L299
660H153L163 787ZM375 787L519 794L539 764L511 660H365L375 787Z" />
<glyph unicode="&#xcc;" glyph-name="Igrave" horiz-adv-x="330" d="M304 520L231 93L292 80L279 0H-25L-14 72L48 85L123 528L66 541L77 613H381L368 533L304 520ZM130 691L118 742L190 841L355 726L319 657L130 691Z" />
<glyph unicode="&#xcd;" glyph-name="Iacute" horiz-adv-x="330" d="M304 520L231 93L292 80L279 0H-25L-14 72L48 85L123 528L66 541L77 613H381L368 533L304 520ZM121 726L322 836L374 742L344 691L133 657L121 726Z" />
<glyph unicode="&#xce;" glyph-name="Icircumflex" horiz-adv-x="330" d="M304 520L231 93L292 80L279 0H-25L-14 72L48 85L123 528L66 541L77 613H381L368 533L304 520ZM77 716L214 841H318L413 707L342 659L247 715H240L126 659L77 716Z" />
<glyph unicode="&#xcf;" glyph-name="Idieresis" horiz-adv-x="330" d="M304 520L231 93L292 80L279 0H-25L-14 72L48 85L123 528L66 541L77 613H381L368 533L304 520ZM74 787L218 794L238 764L210 660H64L74 787ZM286 787L430 794L450 764L422 660H276L286 787Z" />
<glyph unicode="&#xd0;" glyph-name="Eth" horiz-adv-x="608" d="M517 613T563 566T610 421Q610 319 580 222T490 63T347 0H-25L-14 72L48 86L81 278H26L36 339H91L124 528L66 541L77 613H448Q517 613 563 566ZM323 84T354 142T402 284T419 437Q419 494 406 515T363
536Q352 536 305 526L273 339H368L358 278H263L231 91Q271 84 282 84Q323 84 354 142Z" />
<glyph unicode="&#xd1;" glyph-name="Ntilde" horiz-adv-x="651" d="M694 541L633 527L544 7L394 -7L367 11L311 155Q262 281 251 324H238L209 96L277 80L264 0H-25L-14 72L48 85L124 530L66 541L77 613H312L369 428L392 357Q413 297 423 262H435L475 518L406
533L419 613H705L694 541ZM446 664T426 671T383 692Q357 705 350 705Q344 705 323 694T291 674L245 731Q269 757 308 791T364 826Q379 826 398 819T443 798Q448 796 463 789T485 781Q492 781 509 792T538 815L586 756Q567 734 525 699T466 664Q446 664 426 671Z"
/>
<glyph unicode="&#xd2;" glyph-name="Ograve" horiz-adv-x="597" d="M153 -13T89 34T25 189Q25 254 47 348T97 508Q153 545 240 585T354 625Q475 625 538 578T602 423Q602 357 581 265T531 104Q495 77 442 50T340 5T274 -13Q153 -13 89 34ZM303 79T322 87T353
102Q374 153 392 255T411 417Q411 476 396 502T346 529Q321 529 300 520Q281 512 262 448T229 306T216 189Q216 128 232 104T299 79Q303 79 322 87ZM259 691L247 742L319 841L484 726L448 657L259 691Z" />
<glyph unicode="&#xd3;" glyph-name="Oacute" horiz-adv-x="597" d="M153 -13T89 34T25 189Q25 254 47 348T97 508Q153 545 240 585T354 625Q475 625 538 578T602 423Q602 357 581 265T531 104Q495 77 442 50T340 5T274 -13Q153 -13 89 34ZM303 79T322 87T353
102Q374 153 392 255T411 417Q411 476 396 502T346 529Q321 529 300 520Q281 512 262 448T229 306T216 189Q216 128 232 104T299 79Q303 79 322 87ZM259 726L460 836L512 742L482 691L271 657L259 726Z" />
<glyph unicode="&#xd4;" glyph-name="Ocircumflex" horiz-adv-x="597" d="M153 -13T89 34T25 189Q25 254 47 348T97 508Q153 545 240 585T354 625Q475 625 538 578T602 423Q602 357 581 265T531 104Q495 77 442 50T340 5T274 -13Q153 -13 89 34ZM303 79T322 87T353
102Q374 153 392 255T411 417Q411 476 396 502T346 529Q321 529 300 520Q281 512 262 448T229 306T216 189Q216 128 232 104T299 79Q303 79 322 87ZM206 716L343 841H447L542 707L471 659L376 715H369L255 659L206 716Z" />
<glyph unicode="&#xd5;" glyph-name="Otilde" horiz-adv-x="597" d="M153 -13T89 34T25 189Q25 254 47 348T97 508Q153 545 240 585T354 625Q475 625 538 578T602 423Q602 357 581 265T531 104Q495 77 442 50T340 5T274 -13Q153 -13 89 34ZM303 79T322 87T353
102Q374 153 392 255T411 417Q411 476 396 502T346 529Q321 529 300 520Q281 512 262 448T229 306T216 189Q216 128 232 104T299 79Q303 79 322 87ZM415 664T395 671T352 692Q326 705 319 705Q313 705 292 694T260 674L214 731Q238 757 277 791T333 826Q348 826
367 819T412 798Q417 796 432 789T454 781Q461 781 478 792T507 815L555 756Q536 734 494 699T435 664Q415 664 395 671Z" />
<glyph unicode="&#xd6;" glyph-name="Odieresis" horiz-adv-x="597" d="M153 -13T89 34T25 189Q25 254 47 348T97 508Q153 545 240 585T354 625Q475 625 538 578T602 423Q602 357 581 265T531 104Q495 77 442 50T340 5T274 -13Q153 -13 89 34ZM303 79T322 87T353
102Q374 153 392 255T411 417Q411 476 396 502T346 529Q321 529 300 520Q281 512 262 448T229 306T216 189Q216 128 232 104T299 79Q303 79 322 87ZM203 787L347 794L367 764L339 660H193L203 787ZM415 787L559 794L579 764L551 660H405L415 787Z" />
<glyph unicode="&#xd7;" glyph-name="multiply" horiz-adv-x="600" d="M375 228L477 101L385 20L282 148L135 21L67 110L212 236L109 365L202 442L304 316L455 448L526 359L375 228Z" />
<glyph unicode="&#xd8;" glyph-name="Oslash" horiz-adv-x="597" d="M602 516T602 423Q602 357 581 265T531 104Q495 77 442 50T340 5T274 -13Q189 -13 136 8L87 -57L34 -63L15 -45L80 42Q25 92 25 189Q25 254 47 348T97 508Q153 545 240 585T354 625Q442 625
497 602L547 668L600 673L617 651L553 565Q602 516 602 423ZM275 509T251 411T218 227L405 478Q399 504 385 516T346 529Q321 529 300 520Q275 509 251 411ZM303 79T322 87T353 102Q370 144 386 224T409 373L223 124Q230 100 247 90T299 79Q303 79 322 87Z" />
<glyph unicode="&#xd9;" glyph-name="Ugrave" horiz-adv-x="640" d="M609 528L533 85L600 67L589 0H390L361 81Q218 -12 204 -12Q129 -12 87 20T44 113Q44 136 54 198T88 398Q101 476 110 528L52 541L63 613H357L344 533L290 522L265 379Q252 304 245 257T237
196Q237 165 247 154T275 142Q294 142 366 170L425 521L374 533L387 613H681L670 541L609 528ZM263 691L251 742L323 841L488 726L452 657L263 691Z" />
<glyph unicode="&#xda;" glyph-name="Uacute" horiz-adv-x="640" d="M609 528L533 85L600 67L589 0H390L361 81Q218 -12 204 -12Q129 -12 87 20T44 113Q44 136 54 198T88 398Q101 476 110 528L52 541L63 613H357L344 533L290 522L265 379Q252 304 245 257T237
196Q237 165 247 154T275 142Q294 142 366 170L425 521L374 533L387 613H681L670 541L609 528ZM263 726L464 836L516 742L486 691L275 657L263 726Z" />
<glyph unicode="&#xdb;" glyph-name="Ucircumflex" horiz-adv-x="640" d="M609 528L533 85L600 67L589 0H390L361 81Q218 -12 204 -12Q129 -12 87 20T44 113Q44 136 54 198T88 398Q101 476 110 528L52 541L63 613H357L344 533L290 522L265 379Q252 304 245 257T237
196Q237 165 247 154T275 142Q294 142 366 170L425 521L374 533L387 613H681L670 541L609 528ZM210 716L347 841H451L546 707L475 659L380 715H373L259 659L210 716Z" />
<glyph unicode="&#xdc;" glyph-name="Udieresis" horiz-adv-x="640" d="M609 528L533 85L600 67L589 0H390L361 81Q218 -12 204 -12Q129 -12 87 20T44 113Q44 136 54 198T88 398Q101 476 110 528L52 541L63 613H357L344 533L290 522L265 379Q252 304 245 257T237
196Q237 165 247 154T275 142Q294 142 366 170L425 521L374 533L387 613H681L670 541L609 528ZM207 787L351 794L371 764L343 660H197L207 787ZM419 787L563 794L583 764L555 660H409L419 787Z" />
<glyph unicode="&#xdd;" glyph-name="Yacute" horiz-adv-x="551" d="M359 94L434 80L421 0H82L93 72L175 87L201 243L110 523L36 541L47 613H346L333 533L290 525L327 350H337L431 521L375 533L388 613H575L589 548L387 251L359 94ZM259 726L460 836L512 742L482
691L271 657L259 726Z" />
<glyph unicode="&#xde;" glyph-name="Thorn" horiz-adv-x="534" d="M476 498T515 470T555 380Q555 309 527 254T447 169T324 138H239L231 95L317 80L304 0H-25L-14 72L48 85L123 528L66 541L77 613H376L363 541L305 526L300 498H411Q476 498 515 470ZM320 234T340
254T365 304T371 377Q371 403 360 413T326 423Q312 423 286 417L255 234H279Q320 234 340 254Z" />
<glyph unicode="&#xdf;" glyph-name="germandbls" horiz-adv-x="565" d="M433 332T443 318T478 279Q512 245 530 218T549 157Q549 122 536 92Q526 76 497 52T438 10T394 -9Q367 -9 300 -5T184 3L181 -16Q176 -44 137 -84T53 -155T-10 -186Q-44 -186 -126 -151L-112
-73H-81Q-18 -73 -5 -68Q3 -65 8 -45T24 35L104 507Q107 527 145 565T230 634T301 665Q397 665 465 641T533 544Q533 509 518 483T475 423Q453 397 443 381T433 346Q433 332 443 318ZM368 140T356 161T318 213Q293 242 281 262T269 306Q269 345 291 377T352 448Q371
466 381 478T391 500Q391 527 366 539Q306 569 298 569Q288 569 283 557T273 520L203 114L223 109Q233 106 280 94T344 81Q353 81 360 91T368 115Q368 140 356 161Z" />
<glyph unicode="&#xe0;" glyph-name="agrave" horiz-adv-x="504" d="M422 95L468 84L456 15Q424 8 368 0T292 -9Q285 -9 271 10T258 40L271 152H261Q258 147 254 140T245 124Q236 109 202 51T165 -8Q83 -8 48 30T12 141Q12 197 31 270T72 380Q106 405 188 441T293
477Q305 477 382 465T485 448L422 95ZM226 156T280 212L308 383Q252 399 243 396Q234 394 221 366T197 292T187 198Q187 174 194 165T219 156Q226 156 280 212ZM168 623L182 678L257 732L400 578L351 520L168 623Z" />
<glyph unicode="&#xe1;" glyph-name="aacute" horiz-adv-x="504" d="M422 95L468 84L456 15Q424 8 368 0T292 -9Q285 -9 271 10T258 40L271 152H261Q258 147 254 140T245 124Q236 109 202 51T165 -8Q83 -8 48 30T12 141Q12 197 31 270T72 380Q106 405 188 441T293
477Q305 477 382 465T485 448L422 95ZM226 156T280 212L308 383Q252 399 243 396Q234 394 221 366T197 292T187 198Q187 174 194 165T219 156Q226 156 280 212ZM197 578L369 732L441 653L422 599L233 520L197 578Z" />
<glyph unicode="&#xe2;" glyph-name="acircumflex" horiz-adv-x="504" d="M422 95L468 84L456 15Q424 8 368 0T292 -9Q285 -9 271 10T258 40L271 152H261Q258 147 254 140T245 124Q236 109 202 51T165 -8Q83 -8 48 30T12 141Q12 197 31 270T72 380Q106 405 188
441T293 477Q305 477 382 465T485 448L422 95ZM226 156T280 212L308 383Q252 399 243 396Q234 394 221 366T197 292T187 198Q187 174 194 165T219 156Q226 156 280 212ZM135 576L274 720H378L471 567L410 519L316 594H309L188 519L135 576Z" />
<glyph unicode="&#xe3;" glyph-name="atilde" horiz-adv-x="504" d="M422 95L468 84L456 15Q424 8 368 0T292 -9Q285 -9 271 10T258 40L271 152H261Q258 147 254 140T245 124Q236 109 202 51T165 -8Q83 -8 48 30T12 141Q12 197 31 270T72 380Q106 405 188 441T293
477Q305 477 382 465T485 448L422 95ZM226 156T280 212L308 383Q252 399 243 396Q234 394 221 366T197 292T187 198Q187 174 194 165T219 156Q226 156 280 212ZM334 531T314 538T271 559Q245 572 238 572Q232 572 211 561T179 541L133 598Q157 624 196 658T252
693Q267 693 286 686T331 665Q336 663 351 656T373 648Q380 648 397 659T426 682L474 623Q455 601 413 566T354 531Q334 531 314 538Z" />
<glyph unicode="&#xe4;" glyph-name="adieresis" horiz-adv-x="504" d="M422 95L468 84L456 15Q424 8 368 0T292 -9Q285 -9 271 10T258 40L271 152H261Q258 147 254 140T245 124Q236 109 202 51T165 -8Q83 -8 48 30T12 141Q12 197 31 270T72 380Q106 405 188 441T293
477Q305 477 382 465T485 448L422 95ZM226 156T280 212L308 383Q252 399 243 396Q234 394 221 366T197 292T187 198Q187 174 194 165T219 156Q226 156 280 212ZM127 664L271 671L291 641L263 537H117L127 664ZM339 664L483 671L503 641L475 537H329L339 664Z" />
<glyph unicode="&#xe5;" glyph-name="aring" horiz-adv-x="504" d="M422 95L468 84L456 15Q424 8 368 0T292 -9Q285 -9 271 10T258 40L271 152H261Q258 147 254 140T245 124Q236 109 202 51T165 -8Q83 -8 48 30T12 141Q12 197 31 270T72 380Q106 405 188 441T293
477Q305 477 382 465T485 448L422 95ZM226 156T280 212L308 383Q252 399 243 396Q234 394 221 366T197 292T187 198Q187 174 194 165T219 156Q226 156 280 212ZM247 517T224 536T200 599Q200 665 235 705T334 746Q430 746 430 661Q430 597 393 557T293 517Q247
517 224 536ZM318 598T330 604Q338 622 338 645Q338 657 334 661T320 665Q312 665 300 659Q291 636 291 616Q291 606 295 602T308 598Q318 598 330 604Z" />
<glyph unicode="&#xe6;" glyph-name="ae" horiz-adv-x="688" d="M702 324T667 282T573 216T449 191V168Q449 125 461 108T502 91Q518 91 541 96T582 107T606 114L629 121L646 47Q598 28 536 10T457 -9Q370 -9 321 30T271 146V151Q234 89 202 41T165 -8Q83 -8 48
30T12 141Q12 197 31 270T72 380Q106 405 188 441T293 477Q304 477 370 467T473 450Q537 477 558 477Q620 477 661 455T702 381Q702 324 667 282ZM284 254T299 302T328 377Q298 386 274 391T243 396Q234 394 221 366T197 292T187 198Q187 174 194 165T219 156Q224
156 277 209Q284 254 299 302ZM486 387T473 346T454 248Q494 255 519 282T544 355Q544 396 515 396Q508 396 502 394Q486 387 473 346Z" />
<glyph unicode="&#xe7;" glyph-name="ccedilla" horiz-adv-x="409" d="M222 387T207 316T191 165Q191 125 203 108T252 91H353L340 21Q262 3 228 -2L222 -37Q301 -72 301 -117Q301 -129 296 -147T283 -176Q267 -188 214 -207T105 -241L80 -171L103 -161Q138 -146
153 -138T168 -124Q168 -113 118 -96L114 -52L141 -5Q81 6 47 45T13 146Q13 196 32 270T72 380Q108 405 192 441T299 477Q323 477 357 474T424 468L384 286H312L303 375Q270 396 253 396Q250 396 244 394Q222 387 207 316Z" />
<glyph unicode="&#xe8;" glyph-name="egrave" horiz-adv-x="429" d="M443 324T408 282T314 216T190 191V168Q190 125 202 108T243 91Q259 91 282 96T323 107T347 114L370 121L387 47Q339 28 277 10T198 -9Q111 -9 62 30T12 146Q12 196 31 270T71 380Q107 405 191
441T299 477Q361 477 402 455T443 381Q443 324 408 282ZM227 389T214 348T194 248Q235 255 260 282T285 355Q285 396 256 396Q249 396 243 394Q227 389 214 348ZM142 623L156 678L231 732L374 578L325 520L142 623Z" />
<glyph unicode="&#xe9;" glyph-name="eacute" horiz-adv-x="429" d="M443 324T408 282T314 216T190 191V168Q190 125 202 108T243 91Q259 91 282 96T323 107T347 114L370 121L387 47Q339 28 277 10T198 -9Q111 -9 62 30T12 146Q12 196 31 270T71 380Q107 405 191
441T299 477Q361 477 402 455T443 381Q443 324 408 282ZM227 389T214 348T194 248Q235 255 260 282T285 355Q285 396 256 396Q249 396 243 394Q227 389 214 348ZM171 578L343 732L415 653L396 599L207 520L171 578Z" />
<glyph unicode="&#xea;" glyph-name="ecircumflex" horiz-adv-x="429" d="M443 324T408 282T314 216T190 191V168Q190 125 202 108T243 91Q259 91 282 96T323 107T347 114L370 121L387 47Q339 28 277 10T198 -9Q111 -9 62 30T12 146Q12 196 31 270T71 380Q107
405 191 441T299 477Q361 477 402 455T443 381Q443 324 408 282ZM227 389T214 348T194 248Q235 255 260 282T285 355Q285 396 256 396Q249 396 243 394Q227 389 214 348ZM109 576L248 720H352L445 567L384 519L290 594H283L162 519L109 576Z" />
<glyph unicode="&#xeb;" glyph-name="edieresis" horiz-adv-x="429" d="M443 324T408 282T314 216T190 191V168Q190 125 202 108T243 91Q259 91 282 96T323 107T347 114L370 121L387 47Q339 28 277 10T198 -9Q111 -9 62 30T12 146Q12 196 31 270T71 380Q107 405
191 441T299 477Q361 477 402 455T443 381Q443 324 408 282ZM227 389T214 348T194 248Q235 255 260 282T285 355Q285 396 256 396Q249 396 243 394Q227 389 214 348ZM101 664L245 671L265 641L237 537H91L101 664ZM313 664L457 671L477 641L449 537H303L313 664Z"
/>
<glyph unicode="&#xec;" glyph-name="igrave" horiz-adv-x="272" d="M49 -9T34 10T21 40L81 373L35 384L47 453Q76 459 139 468T222 477Q229 477 243 456T257 427L197 95L243 84L231 15Q202 9 139 0T56 -9Q49 -9 34 10ZM60 623L74 678L149 732L292 578L243 520L60 623Z" />
<glyph unicode="&#xed;" glyph-name="iacute" horiz-adv-x="272" d="M49 -9T34 10T21 40L81 373L35 384L47 453Q76 459 139 468T222 477Q229 477 243 456T257 427L197 95L243 84L231 15Q202 9 139 0T56 -9Q49 -9 34 10ZM89 578L261 732L333 653L314 599L125 520L89 578Z" />
<glyph unicode="&#xee;" glyph-name="icircumflex" horiz-adv-x="272" d="M49 -9T34 10T21 40L81 373L35 384L47 453Q76 459 139 468T222 477Q229 477 243 456T257 427L197 95L243 84L231 15Q202 9 139 0T56 -9Q49 -9 34 10ZM27 576L166 720H270L363 567L302 519L208
594H201L80 519L27 576Z" />
<glyph unicode="&#xef;" glyph-name="idieresis" horiz-adv-x="272" d="M49 -9T34 10T21 40L81 373L35 384L47 453Q76 459 139 468T222 477Q229 477 243 456T257 427L197 95L243 84L231 15Q202 9 139 0T56 -9Q49 -9 34 10ZM19 664L163 671L183 641L155 537H9L19
664ZM231 664L375 671L395 641L367 537H221L231 664Z" />
<glyph unicode="&#xf0;" glyph-name="eth" horiz-adv-x="482" d="M512 554L448 523Q483 461 483 371Q483 254 445 168T342 37T199 -9Q189 -9 149 11T72 55T27 93Q15 132 15 171Q15 229 39 280T108 361T207 392Q212 392 244 382T305 361Q306 378 306 415Q306 429
304 451L242 421L203 452V481L280 519Q253 559 189 560L175 634Q201 637 226 637Q337 637 403 579L477 615L513 582L512 554ZM288 72T302 285Q270 302 254 302Q221 302 206 264T190 173Q190 133 198 103T216 72Q288 72 302 285Z" />
<glyph unicode="&#xf1;" glyph-name="ntilde" horiz-adv-x="511" d="M486 348T479 308L438 91L478 80L467 12Q305 -9 298 -9Q291 -9 276 10T263 40L300 246Q304 274 304 283Q304 308 283 308Q281 308 223 250L200 106Q199 102 199 95Q199 74 216 65L210 6L56 -9Q49
-9 34 10T21 40L81 373L35 384L47 453Q78 459 136 468T214 477Q221 477 234 456T246 427L232 310H240L256 339Q284 390 309 433T337 476Q416 476 451 451T486 369Q486 348 479 308ZM338 531T318 538T275 559Q249 572 242 572Q236 572 215 561T183 541L137 598Q161
624 200 658T256 693Q271 693 290 686T335 665Q340 663 355 656T377 648Q384 648 401 659T430 682L478 623Q459 601 417 566T358 531Q338 531 318 538Z" />
<glyph unicode="&#xf2;" glyph-name="ograve" horiz-adv-x="488" d="M112 -9T63 30T13 146Q13 198 31 271T72 380Q133 418 203 449T299 481Q386 481 431 440T477 322Q477 269 459 202T418 97Q391 75 344 51T255 9T199 -9Q112 -9 63 30ZM225 68T234 71Q254 78 260
82Q273 116 286 192T299 322Q299 358 290 379T261 400Q252 400 244 397Q231 392 219 357T199 269T191 165Q191 115 198 92T222 68Q225 68 234 71ZM167 623L181 678L256 732L399 578L350 520L167 623Z" />
<glyph unicode="&#xf3;" glyph-name="oacute" horiz-adv-x="488" d="M112 -9T63 30T13 146Q13 198 31 271T72 380Q133 418 203 449T299 481Q386 481 431 440T477 322Q477 269 459 202T418 97Q391 75 344 51T255 9T199 -9Q112 -9 63 30ZM225 68T234 71Q254 78 260
82Q273 116 286 192T299 322Q299 358 290 379T261 400Q252 400 244 397Q231 392 219 357T199 269T191 165Q191 115 198 92T222 68Q225 68 234 71ZM196 578L368 732L440 653L421 599L232 520L196 578Z" />
<glyph unicode="&#xf4;" glyph-name="ocircumflex" horiz-adv-x="488" d="M112 -9T63 30T13 146Q13 198 31 271T72 380Q133 418 203 449T299 481Q386 481 431 440T477 322Q477 269 459 202T418 97Q391 75 344 51T255 9T199 -9Q112 -9 63 30ZM225 68T234 71Q254
78 260 82Q273 116 286 192T299 322Q299 358 290 379T261 400Q252 400 244 397Q231 392 219 357T199 269T191 165Q191 115 198 92T222 68Q225 68 234 71ZM134 576L273 720H377L470 567L409 519L315 594H308L187 519L134 576Z" />
<glyph unicode="&#xf5;" glyph-name="otilde" horiz-adv-x="488" d="M112 -9T63 30T13 146Q13 198 31 271T72 380Q133 418 203 449T299 481Q386 481 431 440T477 322Q477 269 459 202T418 97Q391 75 344 51T255 9T199 -9Q112 -9 63 30ZM225 68T234 71Q254 78 260
82Q273 116 286 192T299 322Q299 358 290 379T261 400Q252 400 244 397Q231 392 219 357T199 269T191 165Q191 115 198 92T222 68Q225 68 234 71ZM333 531T313 538T270 559Q244 572 237 572Q231 572 210 561T178 541L132 598Q156 624 195 658T251 693Q266 693 285
686T330 665Q335 663 350 656T372 648Q379 648 396 659T425 682L473 623Q454 601 412 566T353 531Q333 531 313 538Z" />
<glyph unicode="&#xf6;" glyph-name="odieresis" horiz-adv-x="488" d="M112 -9T63 30T13 146Q13 198 31 271T72 380Q133 418 203 449T299 481Q386 481 431 440T477 322Q477 269 459 202T418 97Q391 75 344 51T255 9T199 -9Q112 -9 63 30ZM225 68T234 71Q254 78
260 82Q273 116 286 192T299 322Q299 358 290 379T261 400Q252 400 244 397Q231 392 219 357T199 269T191 165Q191 115 198 92T222 68Q225 68 234 71ZM126 664L270 671L290 641L262 537H116L126 664ZM338 664L482 671L502 641L474 537H328L338 664Z" />
<glyph unicode="&#xf7;" glyph-name="divide" horiz-adv-x="600" d="M220 -8T206 11T192 41L201 128Q228 134 273 139T339 145Q346 145 361 124T374 95L352 7Q234 -8 227 -8Q220 -8 206 11ZM110 310H522L499 200H87L110 310ZM280 363T266 382T252 412L261 499Q288
505 333 510T399 516Q406 516 421 495T434 466L412 378Q294 363 287 363Q280 363 266 382Z" />
<glyph unicode="&#xf8;" glyph-name="oslash" horiz-adv-x="488" d="M477 402T477 322Q477 269 459 202T418 97Q391 75 344 51T255 9T199 -9Q173 -9 143 -4L89 -89L29 -96L9 -72L70 24Q13 64 13 146Q13 198 31 271T72 380Q133 418 203 449T299 481Q332 481 359
475L396 532L459 539L476 515L429 442Q477 402 477 322ZM228 391T213 337T193 215L293 371Q283 400 261 400Q252 400 244 397Q228 391 213 337ZM254 78T260 82Q277 124 291 227L201 85Q209 68 222 68Q225 68 234 71Q254 78 260 82Z" />
<glyph unicode="&#xf9;" glyph-name="ugrave" horiz-adv-x="509" d="M461 477T476 458T489 428L429 95L475 84L463 15Q430 8 375 0T300 -9Q293 -9 279 12T265 41L278 152H266Q247 120 244 115Q174 -8 170 -8Q96 -8 62 17T27 97Q27 125 32 150L74 377L34 388L45
456Q86 462 138 468T214 477Q221 477 236 458T249 428L210 211Q205 184 205 173Q205 163 209 160T225 156Q227 156 246 173T286 210L310 362Q311 367 311 374Q311 395 294 403L300 462L454 477Q461 477 476 458ZM151 623L165 678L240 732L383 578L334 520L151 623Z"
/>
<glyph unicode="&#xfa;" glyph-name="uacute" horiz-adv-x="509" d="M461 477T476 458T489 428L429 95L475 84L463 15Q430 8 375 0T300 -9Q293 -9 279 12T265 41L278 152H266Q247 120 244 115Q174 -8 170 -8Q96 -8 62 17T27 97Q27 125 32 150L74 377L34 388L45
456Q86 462 138 468T214 477Q221 477 236 458T249 428L210 211Q205 184 205 173Q205 163 209 160T225 156Q227 156 246 173T286 210L310 362Q311 367 311 374Q311 395 294 403L300 462L454 477Q461 477 476 458ZM180 578L352 732L424 653L405 599L216 520L180 578Z"
/>
<glyph unicode="&#xfb;" glyph-name="ucircumflex" horiz-adv-x="509" d="M461 477T476 458T489 428L429 95L475 84L463 15Q430 8 375 0T300 -9Q293 -9 279 12T265 41L278 152H266Q247 120 244 115Q174 -8 170 -8Q96 -8 62 17T27 97Q27 125 32 150L74 377L34 388L45
456Q86 462 138 468T214 477Q221 477 236 458T249 428L210 211Q205 184 205 173Q205 163 209 160T225 156Q227 156 246 173T286 210L310 362Q311 367 311 374Q311 395 294 403L300 462L454 477Q461 477 476 458ZM118 576L257 720H361L454 567L393 519L299 594H292L171
519L118 576Z" />
<glyph unicode="&#xfc;" glyph-name="udieresis" horiz-adv-x="509" d="M461 477T476 458T489 428L429 95L475 84L463 15Q430 8 375 0T300 -9Q293 -9 279 12T265 41L278 152H266Q247 120 244 115Q174 -8 170 -8Q96 -8 62 17T27 97Q27 125 32 150L74 377L34 388L45
456Q86 462 138 468T214 477Q221 477 236 458T249 428L210 211Q205 184 205 173Q205 163 209 160T225 156Q227 156 246 173T286 210L310 362Q311 367 311 374Q311 395 294 403L300 462L454 477Q461 477 476 458ZM110 664L254 671L274 641L246 537H100L110 664ZM322
664L466 671L486 641L458 537H312L322 664Z" />
<glyph unicode="&#xfd;" glyph-name="yacute" horiz-adv-x="479" d="M478 477T496 457T514 430L289 -9L249 -166Q223 -175 191 -181T143 -188Q131 -188 113 -172T85 -141L183 5L93 14L67 366L18 380L27 449Q54 455 113 464T196 476Q200 476 218 457T237 430L233
221L220 127H236L338 371L288 391L301 464Q325 468 387 472T473 477Q478 477 496 457ZM176 578L348 732L420 653L401 599L212 520L176 578Z" />
<glyph unicode="&#xfe;" glyph-name="thorn" horiz-adv-x="500" d="M418 477T453 439T489 328Q489 272 470 199T429 89Q395 64 313 28T208 -8L176 -5L163 -82L204 -93L192 -162Q161 -168 102 -177T22 -186Q15 -186 1 -167T-13 -137L110 561L64 572L76 641Q106
647 166 656T247 665Q254 665 268 644T282 615L231 317H240Q243 322 247 329T256 345Q265 360 299 418T336 477Q418 477 453 439ZM267 75T280 103T304 177T314 271Q314 296 308 304T283 313Q276 313 221 256L192 86Q247 70 258 73Q267 75 280 103Z" />
<glyph unicode="&#xff;" glyph-name="ydieresis" horiz-adv-x="479" d="M478 477T496 457T514 430L289 -9L249 -166Q223 -175 191 -181T143 -188Q131 -188 113 -172T85 -141L183 5L93 14L67 366L18 380L27 449Q54 455 113 464T196 476Q200 476 218 457T237 430L233
221L220 127H236L338 371L288 391L301 464Q325 468 387 472T473 477Q478 477 496 457ZM106 664L250 671L270 641L242 537H96L106 664ZM318 664L462 671L482 641L454 537H308L318 664Z" />
<glyph unicode="&#x2013;" glyph-name="endash" horiz-adv-x="465" d="M61 302H430L408 186H40L61 302Z" />
<glyph unicode="&#x2014;" glyph-name="emdash" horiz-adv-x="835" d="M61 302H800L778 186H40L61 302Z" />
<glyph unicode="&#x2018;" glyph-name="quoteleft" horiz-adv-x="279" d="M113 399T99 419T85 449Q97 519 134 581T230 707L289 661Q254 586 241 548Q242 547 256 534T268 510L255 416Q227 410 184 405T120 399Q113 399 99 419Z" />
<glyph unicode="&#x2019;" glyph-name="quoteright" horiz-adv-x="280" d="M103 448Q138 523 151 561Q150 562 136 575T124 599L137 693Q165 699 208 704T272 710Q279 710 293 690T307 660Q295 590 258 528T162 402L103 448Z" />
<glyph unicode="&#x201a;" glyph-name="quotesinglbase" horiz-adv-x="274" d="M14 -96Q45 -30 55 -1L31 33L53 136Q129 142 172 142Q179 142 191 123T202 93L195 42Q188 14 149 -42T70 -139L14 -96Z" />
<glyph unicode="&#x201c;" glyph-name="quotedblleft" horiz-adv-x="489" d="M113 398T99 418T85 448Q97 518 134 580T230 706L289 660Q254 585 241 547Q242 546 256 533T268 509L255 415Q227 409 184 404T120 398Q113 398 99 418ZM322 398T308 418T294 448Q306
518 343 580T439 706L498 660Q463 585 450 547Q451 546 465 533T477 509L464 415Q436 409 393 404T329 398Q322 398 308 418Z" />
<glyph unicode="&#x201d;" glyph-name="quotedblright" horiz-adv-x="490" d="M103 447Q138 522 151 560Q150 561 136 574T124 598L137 692Q165 698 208 703T272 709Q279 709 293 689T307 659Q295 589 258 527T162 401L103 447ZM312 447Q347 522 360 560Q359 561
345 574T333 598L346 692Q374 698 417 703T481 709Q488 709 502 689T516 659Q504 589 467 527T371 401L312 447Z" />
<glyph unicode="&#x201e;" glyph-name="quotedblbase" horiz-adv-x="480" d="M14 -96Q45 -30 55 -1L31 33L53 136Q129 142 172 142Q179 142 191 123T202 93L195 42Q188 14 149 -42T70 -139L14 -96ZM220 -96Q251 -30 261 -1L237 33L259 136Q335 142 378 142Q385
142 397 123T408 93L401 42Q394 14 355 -42T276 -139L220 -96Z" />
<glyph unicode="&#x2022;" glyph-name="bullet" horiz-adv-x="521" d="M184 108T146 143T107 241Q107 295 133 341T203 414T300 442Q359 442 397 407T436 309Q436 255 410 209T340 136T243 108Q184 108 146 143Z" />
<glyph unicode="&#x2039;" glyph-name="guilsinglleft" horiz-adv-x="325" d="M38 188L51 285L238 436L295 390L205 244L203 230L249 67L180 24L38 188Z" />
<glyph unicode="&#x203a;" glyph-name="guilsinglright" horiz-adv-x="339" d="M42 70L132 229L134 243L88 393L157 436L299 285L284 188L99 24L42 70Z" />
</font>
</defs>
</svg>
